<?xml version="1.0" encoding="UTF-8"?>
<svg version="1.1" xmlns="http://www.w3.org/2000/svg" width="1772" height="1181">
<path d="M0 0 C2.28412421 0.01071901 4.56746217 0.00005954 6.8515625 -0.01269531 C22.5223363 -0.02860603 34.46245695 4.08267463 48.2890625 11.26074219 C48.2890625 11.92074219 48.2890625 12.58074219 48.2890625 13.26074219 C48.8459375 13.46699219 49.4028125 13.67324219 49.9765625 13.88574219 C56.2304617 17.60427685 59.10618232 23.9593597 60.9765625 30.76074219 C62.35280639 41.7706933 59.7477419 50.35625903 53.2890625 59.26074219 C51.11933301 61.78683058 48.92185559 64.21150633 46.2890625 66.26074219 C45.6290625 66.26074219 44.9690625 66.26074219 44.2890625 66.26074219 C44.2890625 66.92074219 44.2890625 67.58074219 44.2890625 68.26074219 C41.98245691 69.8164996 39.69179371 71.24298983 37.2890625 72.63574219 C36.25011841 73.24518677 36.25011841 73.24518677 35.19018555 73.86694336 C27.59546493 78.29236126 20.43466961 81.63875352 12.03515625 84.32324219 C9.17757097 85.22608318 9.17757097 85.22608318 6.2265625 86.82324219 C2.60313725 88.59640773 -1.04121564 89.50662849 -4.9375 90.51464844 C-7.30785374 91.15230698 -9.58681759 91.87898992 -11.8984375 92.69824219 C-16.74395711 94.36579939 -21.70540442 95.55157146 -26.68823242 96.72729492 C-30.24379353 97.58153298 -33.68818101 98.56699249 -37.14453125 99.76464844 C-41.6306993 101.29461326 -46.12721957 102.28965495 -50.7734375 103.19824219 C-65.6465843 106.24190612 -79.56437938 109.58712079 -93.2109375 116.51074219 C-95.89639156 117.85346922 -97.85716022 118.63491384 -100.7109375 119.26074219 C-100.7109375 119.92074219 -100.7109375 120.58074219 -100.7109375 121.26074219 C-102.20703125 122.47949219 -102.20703125 122.47949219 -104.1484375 123.76074219 C-106.93625597 125.54727848 -106.93625597 125.54727848 -108.7109375 128.26074219 C-109.3709375 128.26074219 -110.0309375 128.26074219 -110.7109375 128.26074219 C-110.91589844 128.89882813 -111.12085938 129.53691406 -111.33203125 130.19433594 C-111.60144531 131.020625 -111.87085938 131.84691406 -112.1484375 132.69824219 C-112.41527344 133.52195312 -112.68210937 134.34566406 -112.95703125 135.19433594 C-113.7109375 137.26074219 -113.7109375 137.26074219 -114.7109375 138.26074219 C-115.01817457 141.29243048 -114.98944944 144.34041186 -115.0234375 147.38574219 C-115.06694336 148.6503125 -115.06694336 148.6503125 -115.11132812 149.94042969 C-115.17218297 155.96974088 -114.01802787 159.23813946 -110.7109375 164.26074219 C-110.7109375 164.92074219 -110.7109375 165.58074219 -110.7109375 166.26074219 C-110.0509375 166.26074219 -109.3909375 166.26074219 -108.7109375 166.26074219 C-108.2159375 166.94136719 -107.7209375 167.62199219 -107.2109375 168.32324219 C-100.42681824 176.29458232 -90.5031918 180.99665742 -80.7109375 184.26074219 C-80.7109375 160.83074219 -80.7109375 137.40074219 -80.7109375 113.26074219 C-73.96368907 109.88711797 -73.96368907 109.88711797 -70.09375 109.01464844 C-69.24756104 108.8192749 -68.40137207 108.62390137 -67.52954102 108.42260742 C-66.64065186 108.22481689 -65.7517627 108.02702637 -64.8359375 107.82324219 C-62.95166875 107.38901482 -61.06755541 106.9541125 -59.18359375 106.51855469 C-58.25562988 106.30618164 -57.32766602 106.09380859 -56.37158203 105.875 C-46.41659347 103.57671121 -36.56004789 101.00987366 -26.796875 97.99511719 C-23.52441352 97.2163542 -21.0546351 96.83998238 -17.7109375 97.26074219 C-15.11328125 99.01855469 -15.11328125 99.01855469 -12.6484375 101.38574219 C-11.79378906 102.20558594 -10.93914062 103.02542969 -10.05859375 103.87011719 C-2.7109375 111.35225633 -2.7109375 111.35225633 -2.7109375 115.26074219 C-2.0509375 115.26074219 -1.3909375 115.26074219 -0.7109375 115.26074219 C0.25514573 117.11088272 1.2115532 118.96607692 2.1640625 120.82324219 C2.69773437 121.85578125 3.23140625 122.88832031 3.78125 123.95214844 C7.14232188 131.32735021 7.67650965 137.89467231 7.6640625 145.88574219 C7.66245117 146.95373047 7.66083984 148.02171875 7.65917969 149.12207031 C7.48392704 160.41383909 4.72727488 169.35542678 -0.7109375 179.26074219 C-1.3709375 179.26074219 -2.0309375 179.26074219 -2.7109375 179.26074219 C-3.08798828 180.36869141 -3.08798828 180.36869141 -3.47265625 181.49902344 C-4.80331836 184.46677774 -6.22072565 186.17194768 -8.5234375 188.44824219 C-9.18988281 189.12242187 -9.85632813 189.79660156 -10.54296875 190.49121094 C-12.84248809 192.36811591 -14.9148581 193.30919684 -17.7109375 194.26074219 C-17.7109375 194.92074219 -17.7109375 195.58074219 -17.7109375 196.26074219 C-29.8992769 206.56516965 -47.38411376 211.63138114 -62.2734375 216.44824219 C-75.54263062 220.74491334 -90.82304303 225.82213937 -98.7109375 238.26074219 C-102.12554254 245.08995227 -102.60772993 251.68992613 -101.7109375 259.26074219 C-100.649135 262.21172577 -99.32132434 264.54321439 -97.7109375 267.26074219 C-97.7109375 268.25074219 -97.7109375 269.24074219 -97.7109375 270.26074219 C-97.0509375 270.26074219 -96.3909375 270.26074219 -95.7109375 270.26074219 C-94.16015625 271.90527344 -94.16015625 271.90527344 -92.3984375 274.07324219 C-89.73526104 277.23228204 -87.36290934 279.26875755 -83.7109375 281.26074219 C-83.7109375 281.92074219 -83.7109375 282.58074219 -83.7109375 283.26074219 C-82.3909375 283.59074219 -81.0709375 283.92074219 -79.7109375 284.26074219 C-79.7109375 264.79074219 -79.7109375 245.32074219 -79.7109375 225.26074219 C-70.66573028 220.09205235 -62.14714256 217.04037047 -52.13671875 214.27246094 C-44.3908806 212.30098497 -44.3908806 212.30098497 -37.7109375 208.26074219 C-35.37796317 208.21981281 -33.04388525 208.21832496 -30.7109375 208.26074219 C-30.7109375 208.92074219 -30.7109375 209.58074219 -30.7109375 210.26074219 C-29.84275391 210.63005859 -29.84275391 210.63005859 -28.95703125 211.00683594 C-19.4356705 216.32223907 -14.31162228 227.6156315 -11.3984375 237.57324219 C-7.18264348 253.81155565 -10.95132443 266.02258425 -18.7109375 280.26074219 C-19.3709375 281.25074219 -20.0309375 282.24074219 -20.7109375 283.26074219 C-21.3709375 283.26074219 -22.0309375 283.26074219 -22.7109375 283.26074219 C-22.7109375 283.92074219 -22.7109375 284.58074219 -22.7109375 285.26074219 C-23.3709375 285.26074219 -24.0309375 285.26074219 -24.7109375 285.26074219 C-24.94039063 285.83179688 -25.16984375 286.40285156 -25.40625 286.99121094 C-33.75018852 301.50566687 -55.92025614 308.34723589 -70.87890625 313.77246094 C-80.62579997 317.42426209 -87.77982426 323.00327487 -92.7109375 332.26074219 C-93.39820419 334.44498067 -93.39820419 334.44498067 -93.7109375 336.26074219 C-94.3709375 336.26074219 -95.0309375 336.26074219 -95.7109375 336.26074219 C-95.94043596 351.33114126 -95.05755014 363.46243645 -84.7109375 375.26074219 C-83.7417226 376.18792481 -82.76354003 377.10589849 -81.7734375 378.01074219 C-81.0928125 378.75324219 -80.4121875 379.49574219 -79.7109375 380.26074219 C-79.8984375 382.57324219 -79.8984375 382.57324219 -80.7109375 384.26074219 C-88.98643567 383.58519132 -94.12981929 380.42934653 -99.7109375 374.26074219 C-100.17886719 373.75027344 -100.64679688 373.23980469 -101.12890625 372.71386719 C-104.7109375 368.66025199 -104.7109375 368.66025199 -104.7109375 365.26074219 C-105.3709375 365.26074219 -106.0309375 365.26074219 -106.7109375 365.26074219 C-112.56546271 353.25215793 -113.59434408 340.1477156 -109.7109375 327.26074219 C-109.53949219 326.62007812 -109.36804688 325.97941406 -109.19140625 325.31933594 C-104.67102618 310.88328344 -92.35110004 301.46763303 -79.5234375 294.69824219 C-75.20407039 292.46071265 -70.84518162 290.31601761 -66.44921875 288.23339844 C-56.15985481 283.32460007 -46.7369587 278.35123517 -40.7109375 268.26074219 C-40.0509375 268.26074219 -39.3909375 268.26074219 -38.7109375 268.26074219 C-38.56914062 267.68453125 -38.42734375 267.10832031 -38.28125 266.51464844 C-37.92329163 265.09997736 -37.54591111 263.68993172 -37.140625 262.28808594 C-34.58461146 252.65803494 -35.87002281 244.84946181 -40.7109375 236.26074219 C-40.7109375 235.60074219 -40.7109375 234.94074219 -40.7109375 234.26074219 C-41.3709375 234.26074219 -42.0309375 234.26074219 -42.7109375 234.26074219 C-42.7109375 233.60074219 -42.7109375 232.94074219 -42.7109375 232.26074219 C-43.3709375 232.26074219 -44.0309375 232.26074219 -44.7109375 232.26074219 C-44.7109375 231.60074219 -44.7109375 230.94074219 -44.7109375 230.26074219 C-45.27296875 229.98488281 -45.835 229.70902344 -46.4140625 229.42480469 C-48.79712544 228.2170619 -51.1288383 226.93897409 -53.4609375 225.63574219 C-54.26015625 225.18972656 -55.059375 224.74371094 -55.8828125 224.28417969 C-56.78773438 223.77757812 -56.78773438 223.77757812 -57.7109375 223.26074219 C-57.70570068 224.40325439 -57.70046387 225.5457666 -57.69506836 226.72290039 C-57.67663746 231.05996888 -57.66537 235.39703412 -57.65600586 239.73413086 C-57.65105095 241.59286078 -57.64428513 243.45158698 -57.63549805 245.31030273 C-57.57712604 257.99763103 -57.90297053 270.59834217 -58.7109375 283.26074219 C-59.27901123 283.52177734 -59.84708496 283.7828125 -60.43237305 284.05175781 C-63.09171939 285.27968605 -65.74586704 286.51824247 -68.3984375 287.76074219 C-69.83425171 288.43218262 -69.83425171 288.43218262 -71.29907227 289.1171875 C-77.94765355 292.28034966 -84.0298937 295.78745382 -90.01953125 300.05761719 C-92.7109375 301.26074219 -92.7109375 301.26074219 -95.93359375 300.52636719 C-97.53737318 299.79553099 -99.1345543 299.04893379 -100.7109375 298.26074219 C-100.7109375 297.60074219 -100.7109375 296.94074219 -100.7109375 296.26074219 C-101.3709375 296.07511719 -102.0309375 295.88949219 -102.7109375 295.69824219 C-113.23544117 290.65525085 -120.33943576 279.78549518 -124.7109375 269.26074219 C-125.06929688 268.43574219 -125.42765625 267.61074219 -125.796875 266.76074219 C-127.12562466 261.67288024 -127.03952042 256.74734192 -127.0234375 251.51074219 C-127.04760742 249.96 -127.04760742 249.96 -127.07226562 248.37792969 C-127.07756926 239.95575333 -125.62657919 232.74562145 -121.7109375 225.26074219 C-121.0509375 225.26074219 -120.3909375 225.26074219 -119.7109375 225.26074219 C-119.5665625 224.64199219 -119.4221875 224.02324219 -119.2734375 223.38574219 C-118.7109375 221.26074219 -118.7109375 221.26074219 -117.7109375 219.26074219 C-117.0509375 219.26074219 -116.3909375 219.26074219 -115.7109375 219.26074219 C-115.30875 218.37322266 -115.30875 218.37322266 -114.8984375 217.46777344 C-106.49540136 201.85028851 -83.34316065 193.90722465 -67.7109375 188.26074219 C-53.87440519 183.26958612 -53.87440519 183.26958612 -40.8359375 176.51074219 C-38.7109375 175.26074219 -38.7109375 175.26074219 -36.7109375 175.26074219 C-36.7109375 174.60074219 -36.7109375 173.94074219 -36.7109375 173.26074219 C-34.98454002 172.03234398 -33.25681528 170.80572627 -31.51953125 169.59277344 C-25.77712591 165.3634857 -23.08553138 159.10229231 -21.7109375 152.26074219 C-21.51740989 146.57154306 -22.1015344 140.91096873 -22.7109375 135.26074219 C-23.3709375 135.26074219 -24.0309375 135.26074219 -24.7109375 135.26074219 C-25.0615625 134.41511719 -25.4121875 133.56949219 -25.7734375 132.69824219 C-31.083653 123.2768921 -40.70097643 116.91822796 -50.7109375 113.26074219 C-52.37351228 112.90756518 -54.03973603 112.57053974 -55.7109375 112.26074219 C-55.71236252 113.13104568 -55.71378754 114.00134918 -55.71525574 114.89802551 C-55.73307486 123.09425239 -55.7746554 131.28993835 -55.84302807 139.48590565 C-55.87734001 143.69974212 -55.90241448 147.91321446 -55.90649414 152.12719727 C-55.91076825 156.19294761 -55.93915545 160.25787595 -55.98436928 164.32336998 C-55.99737302 165.87547711 -56.00164177 167.42768248 -55.99709129 168.97983742 C-55.99220503 171.15225935 -56.01818184 173.32226027 -56.05151367 175.49438477 C-56.05817551 176.73126541 -56.06483734 177.96814606 -56.07170105 179.24250793 C-56.7109375 182.26074219 -56.7109375 182.26074219 -59.12927246 184.13586426 C-61.27521816 185.07089143 -63.33198072 185.92334058 -65.57421875 186.58496094 C-66.28852051 186.80482666 -67.00282227 187.02469238 -67.73876953 187.2512207 C-68.49270996 187.48123779 -69.24665039 187.71125488 -70.0234375 187.94824219 C-80.77684409 191.37978251 -91.03625047 195.92175518 -100.3359375 202.38574219 C-103.7109375 204.26074219 -103.7109375 204.26074219 -106.6015625 203.56152344 C-118.57750835 198.55148579 -131.10899951 188.57835017 -137.7109375 177.26074219 C-137.7109375 176.27074219 -137.7109375 175.28074219 -137.7109375 174.26074219 C-138.3709375 174.26074219 -139.0309375 174.26074219 -139.7109375 174.26074219 C-139.7109375 172.94074219 -139.7109375 171.62074219 -139.7109375 170.26074219 C-140.3709375 170.26074219 -141.0309375 170.26074219 -141.7109375 170.26074219 C-144.66507776 160.10588503 -146.51331051 150.93747987 -145.7109375 140.26074219 C-145.65164063 139.35195313 -145.59234375 138.44316406 -145.53125 137.50683594 C-144.44676573 128.63258047 -139.89489902 121.01566622 -135.7109375 113.26074219 C-135.0509375 113.26074219 -134.3909375 113.26074219 -133.7109375 113.26074219 C-133.45570313 112.52210938 -133.20046875 111.78347656 -132.9375 111.02246094 C-127.23428309 98.18114134 -108.95073947 89.72610525 -96.7109375 84.26074219 C-93.1696778 82.93764149 -89.58731375 81.82569295 -85.9609375 80.76074219 C-84.97085693 80.46449951 -83.98077637 80.16825684 -82.96069336 79.86303711 C-73.46510598 77.08048322 -63.86080196 74.9093567 -54.19580078 72.81054688 C-44.36065983 70.6344084 -34.64854225 68.00382831 -24.98046875 65.18261719 C-22.0480256 64.35578734 -19.11568184 63.63654215 -16.1484375 62.94824219 C-1.59554603 59.36870033 12.50520429 54.23849461 25.8515625 47.44824219 C28.2890625 46.26074219 28.2890625 46.26074219 30.2890625 46.26074219 C30.2890625 45.60074219 30.2890625 44.94074219 30.2890625 44.26074219 C31.93909078 42.90687283 33.6065012 41.57396076 35.2890625 40.26074219 C36.8012492 37.23636879 36.46169619 34.59832685 36.2890625 31.26074219 C35.27169479 28.49931553 34.92735509 27.57988848 32.2890625 26.26074219 C32.2890625 25.60074219 32.2890625 24.94074219 32.2890625 24.26074219 C26.55337252 22.54003519 18.81246055 21.80369788 13.2109375 24.12011719 C11.47123226 25.29195853 11.47123226 25.29195853 9.2890625 27.26074219 C8.2990625 27.59074219 7.3090625 27.92074219 6.2890625 28.26074219 C6.2890625 28.92074219 6.2890625 29.58074219 6.2890625 30.26074219 C4.10529484 31.39351487 1.91749122 32.51697008 -0.2734375 33.63574219 C-0.88251953 33.95285156 -1.49160156 34.26996094 -2.11914062 34.59667969 C-8.82375207 38.00219661 -15.3029782 39.57004906 -22.7734375 40.01074219 C-23.45470703 40.06617188 -24.13597656 40.12160156 -24.83789062 40.17871094 C-30.62963066 40.54591059 -34.70366684 39.52619543 -39.5859375 36.44824219 C-41.7109375 34.26074219 -41.7109375 34.26074219 -41.84375 31.62402344 C-41.79992187 30.84414063 -41.75609375 30.06425781 -41.7109375 29.26074219 C-33.71955331 28.1762724 -25.73208536 27.10507354 -17.7109375 26.26074219 C-18.0409375 25.93074219 -18.3709375 25.60074219 -18.7109375 25.26074219 C-20.702017 25.50526072 -22.69299742 25.75060218 -24.68359375 25.99902344 C-28.53153137 26.33168385 -32.35036807 26.3793029 -36.2109375 26.38574219 C-36.92967041 26.39017334 -37.64840332 26.39460449 -38.38891602 26.39916992 C-43.58681191 26.38486778 -43.58681191 26.38486778 -44.7109375 25.26074219 C-45.36937945 19.86151817 -43.79681594 15.62871911 -40.7109375 11.26074219 C-37.37348714 8.22565913 -34.12203858 6.34201379 -29.9609375 4.63574219 C-28.51460937 4.02859375 -28.51460937 4.02859375 -27.0390625 3.40917969 C-17.9697099 0.27961435 -9.48415245 -0.05296133 0 0 Z M-16.7109375 11.26074219 C-17.0409375 12.25074219 -17.3709375 13.24074219 -17.7109375 14.26074219 C-12.62790064 14.37395075 -12.62790064 14.37395075 -7.7109375 13.26074219 C-7.7109375 12.60074219 -7.7109375 11.94074219 -7.7109375 11.26074219 C-10.6809375 11.26074219 -13.6509375 11.26074219 -16.7109375 11.26074219 Z " fill="#0080C2" transform="translate(442.7109375,426.7392578125)"/>
<path d="M0 0 C12.87 0 25.74 0 39 0 C39 21.12 39 42.24 39 64 C50.55 64 62.1 64 74 64 C74 42.88 74 21.76 74 0 C86.87 0 99.74 0 113 0 C113 58.74 113 117.48 113 178 C100.13 178 87.26 178 74 178 C74 155.23 74 132.46 74 109 C62.45 109 50.9 109 39 109 C39 131.77 39 154.54 39 178 C26.13 178 13.26 178 0 178 C0 119.26 0 60.52 0 0 Z " fill="#0087C7" transform="translate(881,469)"/>
<path d="M0 0 C19.42330573 14.70663571 28.72366534 38.88150383 32.18408203 62.33227539 C32.90310524 68.76238489 32.93731667 75.18515535 32.90234375 81.6484375 C32.90052094 82.34959686 32.89869812 83.05075623 32.89682007 83.77316284 C32.77516034 111.62135115 25.90169041 139.7102711 5.58984375 159.9609375 C-5.83495338 170.00803851 -18.32898799 174.54176754 -33.42578125 174.234375 C-47.75211182 173.25119545 -59.28204965 166.03086663 -69 155.8046875 C-90.21736762 130.77025699 -94.48487876 97.88677886 -92.20800781 66.14257812 C-89.77586798 42.26171835 -80.39405244 17.73167883 -61.87109375 1.7734375 C-42.89159395 -12.20511473 -19.63998552 -13.35631727 0 0 Z M-44.66015625 50.0234375 C-54.43282571 62.35244556 -53.32828977 80.19022038 -52.41015625 94.9609375 C-51.18742211 103.88425501 -47.46788981 112.79590533 -40.28515625 118.3984375 C-34.77949701 121.39064361 -29.32041495 122.07309441 -23.25390625 120.34765625 C-16.61311753 117.44869656 -12.92857081 112.61386453 -10.1875 106.01953125 C-4.65083991 90.16364805 -4.02958905 70.87340173 -11.34765625 55.3984375 C-14.57034022 49.68549773 -17.98315193 45.58417242 -24.28515625 43.2734375 C-32.64449203 42.04412341 -38.81385403 43.89733744 -44.66015625 50.0234375 Z " fill="#0087C7" transform="translate(1099.41015625,475.0390625)"/>
<path d="M0 0 C12.87 0 25.74 0 39 0 C39.33 22.77 39.66 45.54 40 69 C48.41936999 51.72198855 56.80644581 34.44893372 64.83666992 16.98730469 C65.3288501 15.91770508 65.82103027 14.84810547 66.328125 13.74609375 C66.96089355 12.36442017 66.96089355 12.36442017 67.60644531 10.95483398 C69.34262962 7.27350276 71.17975081 3.64049838 73 0 C88.51 0 104.02 0 120 0 C114.78209451 11.01557826 109.60275208 21.86143539 103.8671875 32.5859375 C101.67828783 36.70207167 99.52336493 40.83513231 97.3828125 44.9765625 C97.06617645 45.58798096 96.74954041 46.19939941 96.42330933 46.8293457 C94.79486059 49.97769702 93.17830177 53.1313479 91.58154297 56.29589844 C88.77640262 61.82890154 85.9431607 67.2394726 82.5 72.4140625 C77.44250075 79.72721477 77.44250075 79.72721477 76.28222656 88.234375 C77.86034919 93.38380467 80.626269 97.8289626 83.44873047 102.38037109 C86.21763109 107.05621365 88.3995276 112.01391276 90.6875 116.9375 C93.91303349 123.69727796 97.19613274 130.42642706 100.5625 137.1171875 C101.01554253 138.01834038 101.01554253 138.01834038 101.47773743 138.93769836 C102.92524987 141.81409384 104.37852684 144.6873595 105.84057617 147.55639648 C110.90972079 157.58525801 115.36982995 167.71073321 120 178 C104.49 178 88.98 178 73 178 C68.33966535 168.67933069 63.71985186 159.43155299 59.453125 149.9375 C59.15083984 149.26589844 58.84855469 148.59429688 58.53710938 147.90234375 C58.23611328 147.23332031 57.93511719 146.56429687 57.625 145.875 C57.02373389 144.54413689 56.42217102 143.21340781 55.8203125 141.8828125 C53.87907331 137.58905464 51.93957831 133.29450837 50 129 C45.05 118.11 45.05 118.11 40 107 C39.67 130.43 39.34 153.86 39 178 C26.13 178 13.26 178 0 178 C0 119.26 0 60.52 0 0 Z " fill="#0087C7" transform="translate(509,469)"/>
<path d="M0 0 C14.85 0 29.7 0 45 0 C50.74483737 20.68141451 50.74483737 20.68141451 52.74804688 28.74926758 C52.98170897 29.68204875 53.21537106 30.61482992 53.45611382 31.57587719 C54.2125861 34.59820207 54.96572901 37.62134481 55.71875 40.64453125 C56.25963484 42.80880192 56.80070578 44.97302608 57.34194946 47.13720703 C58.77114461 52.85481834 60.19724807 58.573196 61.62241364 64.2918129 C62.5023878 67.82207935 63.38311845 71.35215623 64.26409912 74.88217163 C68.18321929 90.58633656 72.09510092 106.29229298 76 122 C76.22134109 122.89027893 76.44268219 123.78055786 76.67073059 124.69781494 C78.8929786 133.63740642 81.11059515 142.57810264 83.31420898 151.52230835 C83.8514108 153.70227444 84.38964658 155.88198602 84.92895508 158.06143188 C85.6463547 160.96325866 86.35922902 163.86615132 87.0703125 166.76953125 C87.27210114 167.58309082 87.47388977 168.39665039 87.68179321 169.23486328 C88.41070104 172.23178327 89 174.90303369 89 178 C75.47 178 61.94 178 48 178 C47.01 173.91625 46.02 169.8325 45 165.625 C44.68675781 164.33803223 44.37351562 163.05106445 44.05078125 161.72509766 C43.80714844 160.71495605 43.56351563 159.70481445 43.3125 158.6640625 C43.06113281 157.62717285 42.80976562 156.5902832 42.55078125 155.52197266 C42 153 42 153 42 151 C29.13 151 16.26 151 3 151 C1.396365 159.13682848 1.396365 159.13682848 -0.20092773 167.27490234 C-0.40145752 168.28504395 -0.6019873 169.29518555 -0.80859375 170.3359375 C-1.01282959 171.37282715 -1.21706543 172.4097168 -1.42749023 173.47802734 C-2 176 -2 176 -3 178 C-16.53 178 -30.06 178 -44 178 C-41.66654631 167.49945841 -39.33423004 157.03781827 -36.73535156 146.60668945 C-36.28557953 144.79012344 -36.28557953 144.79012344 -35.82672119 142.93685913 C-35.0181448 139.67314538 -34.2076543 136.40991981 -33.39614582 133.14693475 C-32.53364328 129.67718386 -31.67346167 126.20685746 -30.81292725 122.73661804 C-29.36541236 116.9007752 -27.91617094 111.0653633 -26.46582031 105.23022461 C-24.81187004 98.57587975 -23.16045508 91.9209099 -21.51049066 85.26557571 C-19.89941314 78.7672985 -18.28663265 72.26944505 -16.67308807 65.77178001 C-15.99817958 63.05388635 -15.32378064 60.33586712 -14.64984894 57.61773109 C-9.8794234 38.38118427 -4.97385752 19.18492824 0 0 Z M22 62 C18.7 77.51 15.4 93.02 12 109 C18.93 109 25.86 109 33 109 C29.7 93.49 26.4 77.98 23 62 C22.67 62 22.34 62 22 62 Z " fill="#0087C7" transform="translate(1558,469)"/>
<path d="M0 0 C31.21979234 -0.0228151 62.43958248 -0.04051098 93.65938118 -0.05106533 C97.34559333 -0.05231603 101.03180546 -0.05361035 104.71801758 -0.05493164 C105.81880017 -0.05532511 105.81880017 -0.05532511 106.94182079 -0.05572652 C118.82257003 -0.06007722 130.70331443 -0.06796148 142.5840608 -0.0771528 C154.77579808 -0.08650601 166.96753284 -0.09205915 179.15927356 -0.09408849 C186.68154274 -0.09546025 194.20379822 -0.09979209 201.72606318 -0.10791647 C207.49520795 -0.11382981 213.26434395 -0.11445473 219.03349113 -0.11310768 C221.39939839 -0.11338298 223.76530616 -0.11537456 226.13121033 -0.11920547 C229.36052833 -0.12417832 232.58978771 -0.12298496 235.81910706 -0.12025452 C237.22428214 -0.12462378 237.22428214 -0.12462378 238.6578446 -0.12908131 C253.11794563 -0.09602088 260.56278397 3.93355541 271 14 C271.54785156 14.48339844 272.09570312 14.96679688 272.66015625 15.46484375 C274.41764316 17.47852408 275.18235886 19.50608328 276.125 22 C276.62386719 23.299375 276.62386719 23.299375 277.1328125 24.625 C278.70042729 28.91828734 279.16309244 32.22876099 279.1875 36.8125 C279.20167969 38.01519531 279.21585937 39.21789062 279.23046875 40.45703125 C278.99924453 44.01161379 278.19831772 46.66732014 277 50 C275.29660558 59.28624699 275.68436225 67.73807006 280.75 75.875 C284.48852116 81.03252189 288.96667361 84.03044304 295 86 C297.81996155 86.24131014 300.49481923 86.37992979 303.3125 86.375 C304.44764038 86.37693359 304.44764038 86.37693359 305.60571289 86.37890625 C311.36912911 86.26939948 315.11926641 85.18741786 320 82 C320.66 82 321.32 82 322 82 C322 81.34 322 80.68 322 80 C323.66666667 78.33333333 325.33333333 76.66666667 327 75 C329.05993298 71.62231577 329.78020341 68.08998449 330.625 64.25 C330.88539063 63.07953125 331.14578125 61.9090625 331.4140625 60.703125 C331.60742188 59.81109375 331.80078125 58.9190625 332 58 C333.32 58.33 334.64 58.66 336 59 C336 80.45 336 101.9 336 124 C331.66042477 122.91510619 331.48847248 122.76896486 329.25 119.3125 C322.40207453 109.76638943 312.78099528 105.88801154 301.4375 103.91015625 C295.02468273 102.88280279 288.73100769 102.76170446 282.25 102.6875 C265.4724341 102.21004603 252.33143676 98.94671213 240 87 C239.67 86.01 239.34 85.02 239 84 C238.34 84 237.68 84 237 84 C229.10936377 74.4481772 225.55554855 62.71547118 226 50.4375 C226.24499429 43.6327837 226.25826841 37.60569432 221.5625 32.1875 C217.13984354 28.41206156 214.95428005 27.74494454 209.1875 27.8125 C207.98480469 27.81894531 206.78210938 27.82539063 205.54296875 27.83203125 C202.26598859 27.98738974 199.23064122 28.4615598 196 29 C192.18671765 29.29312223 188.36537818 29.4370568 184.54492188 29.60546875 C180.57934399 29.79826298 176.89481056 30.21117761 173 31 C170.191016 31.23703889 167.37813963 31.36790222 164.5625 31.5 C163.08448049 31.56970572 161.60660602 31.64256637 160.12890625 31.71875 C159.47994385 31.74904297 158.83098145 31.77933594 158.16235352 31.81054688 C155.88886958 31.97970598 155.88886958 31.97970598 153.22387695 32.47705078 C149.58735416 33.06693581 145.95961326 33.37948711 142.2890625 33.6484375 C141.5397345 33.70549866 140.79040649 33.76255981 140.01837158 33.8213501 C138.3992014 33.94423854 136.77993462 34.06585968 135.1605835 34.18634033 C132.59269911 34.37740334 130.02509174 34.57187952 127.45751953 34.76708984 C119.1418358 35.39757461 110.8251639 36.01428853 102.50784302 36.62277222 C98.84601468 36.89087997 95.18433189 37.16095044 91.52264404 37.43096924 C88.91061972 37.62238963 86.29834435 37.81007169 83.68603516 37.99755859 C82.07974132 38.11540617 80.47345819 38.23339977 78.8671875 38.3515625 C78.14178772 38.40250061 77.41638794 38.45343872 76.66900635 38.50592041 C73.03557843 38.7769037 69.56460555 39.26952072 66 40 C62.06874941 40.32890507 58.12884045 40.46305973 54.1875 40.625 C53.13240234 40.6765625 52.07730469 40.728125 50.99023438 40.78125 C38.06797361 41.32873519 28.42195039 38.95359372 18 31 C18 30.34 18 29.68 18 29 C17.401875 28.731875 16.80375 28.46375 16.1875 28.1875 C14.00152146 27.00082594 12.58667406 25.90400887 11 24 C11 23.34 11 22.68 11 22 C10.34 22 9.68 22 9 22 C8.34 20.02 7.68 18.04 7 16 C6.34 16 5.68 16 5 16 C4.01 13.03 3.02 10.06 2 7 C1.34 7 0.68 7 0 7 C0 4.69 0 2.38 0 0 Z " fill="#00A9E6" transform="translate(24,276)"/>
<path d="M0 0 C11.56365336 8.33563705 16.44370914 21.77298507 18.6875 35.375 C19.42817512 43.05108758 19.375 50.78826089 19.375 58.5 C7.495 58.5 -4.385 58.5 -16.625 58.5 C-17.285 53.88 -17.945 49.26 -18.625 44.5 C-18.955 43.84 -19.285 43.18 -19.625 42.5 C-20.615 42.5 -21.605 42.5 -22.625 42.5 C-23.79592513 46.62437673 -23.46784847 48.78293594 -21.73828125 52.67578125 C-21.03566162 54.26060303 -21.03566162 54.26060303 -20.31884766 55.87744141 C-16.90007595 63.18902034 -13.37397494 70.44454006 -9.8125 77.6875 C-8.96118393 79.42558313 -8.1102791 81.16386774 -7.25976562 82.90234375 C-5.96290175 85.55305534 -4.66579919 88.2036467 -3.36740112 90.85360718 C0.89075273 99.54471062 5.11133366 108.25380501 9.32611084 116.96600342 C13.38217502 125.34860521 17.45937142 133.72044044 21.55859375 142.08203125 C22.87789554 144.77675273 24.19691894 147.47161032 25.51586914 150.16650391 C26.37448686 151.91865958 27.2344943 153.67013498 28.09594727 155.42089844 C29.29523837 157.85837151 30.48985751 160.29808407 31.68359375 162.73828125 C32.04319687 163.46586136 32.40279999 164.19344147 32.77330017 164.94306946 C34.33828779 168.15232184 35.50412902 171.01651607 36.375 174.5 C23.505 174.5 10.635 174.5 -2.625 174.5 C-4.605 170.87 -6.585 167.24 -8.625 163.5 C-9.5325 164.36625 -10.44 165.2325 -11.375 166.125 C-21.73543943 175.04472393 -32.35967562 177.26171418 -45.625 176.5 C-55.33296411 175.03642035 -62.21033623 169.67955158 -68.375 162.25 C-80.96560058 144.96706911 -81.67384542 122.77335717 -79.19140625 102.203125 C-76.94792063 89.88485613 -70.947337 76.91589857 -60.8515625 69.1328125 C-59.47947866 68.19876482 -58.05746342 67.33851517 -56.625 66.5 C-56.82996094 65.84773437 -57.03492188 65.19546875 -57.24609375 64.5234375 C-57.51550781 63.64945313 -57.78492188 62.77546875 -58.0625 61.875 C-58.32933594 61.01648438 -58.59617187 60.15796875 -58.87109375 59.2734375 C-63.05737665 43.87312217 -61.78062158 25.9738332 -54.19140625 11.8828125 C-48.68478413 3.50615542 -41.25949866 -1.98206809 -31.77734375 -5.109375 C-20.73509545 -7.1134128 -9.66532025 -5.68741634 0 0 Z M-44 109.3125 C-46.99476874 113.34391945 -47.26778134 117.63322698 -46.625 122.5 C-45.25232776 126.01812347 -45.25232776 126.01812347 -42.625 128.5 C-39.23081779 129.91349769 -39.23081779 129.91349769 -35.625 129.5 C-32.56369321 127.50349557 -31.04533957 125.91410535 -29.9921875 122.37109375 C-29.17528944 117.23506448 -29.69518806 113.94897369 -32.625 109.5 C-34.55667398 107.15186266 -34.55667398 107.15186266 -38 107.125 C-41.63744487 107.18274919 -41.63744487 107.18274919 -44 109.3125 Z " fill="#0087C7" transform="translate(713.625,472.5)"/>
<path d="M0 0 C2.02545036 1.43903426 3.84036813 2.97190422 5.67578125 4.64453125 C6.26746094 5.12277344 6.85914063 5.60101563 7.46875 6.09375 C16.09453805 13.65321547 20.36984333 25.70516175 22.67578125 36.64453125 C22.90265625 37.65515625 23.12953125 38.66578125 23.36328125 39.70703125 C23.81961668 43.99658425 23.67578125 48.33077338 23.67578125 52.64453125 C9.81578125 52.64453125 -4.04421875 52.64453125 -18.32421875 52.64453125 C-19.31421875 47.69453125 -19.31421875 47.69453125 -20.32421875 42.64453125 C-22.93632144 39.37624985 -22.93632144 39.37624985 -26.01171875 39.45703125 C-26.77484375 39.51890625 -27.53796875 39.58078125 -28.32421875 39.64453125 C-28.60360299 41.18114459 -28.8463294 42.72444143 -29.07421875 44.26953125 C-29.2134375 45.12804687 -29.35265625 45.9865625 -29.49609375 46.87109375 C-29.25315735 50.79120387 -27.79449352 52.63160596 -25.32421875 55.64453125 C-22.59255338 57.77440995 -22.59255338 57.77440995 -19.44921875 59.51953125 C-18.88549561 59.85339844 -18.32177246 60.18726563 -17.7409668 60.53125 C-14.75786955 62.28683499 -11.73815003 63.9742953 -8.7109375 65.65234375 C2.69392173 71.98751403 11.83401544 78.26597955 18.67578125 89.64453125 C19.27519531 90.63066406 19.27519531 90.63066406 19.88671875 91.63671875 C25.08098075 101.04887772 26.19320513 111.51074169 26.05078125 122.08203125 C26.04062988 123.17733154 26.03047852 124.27263184 26.02001953 125.40112305 C25.73279144 140.36926899 22.34523867 154.61342782 11.7109375 165.83203125 C0.98517854 175.38433866 -10.35728149 178.40331816 -24.45703125 177.9296875 C-29.74977171 177.53941472 -34.37457107 176.53341549 -39.32421875 174.64453125 C-40.56558594 174.18626953 -40.56558594 174.18626953 -41.83203125 173.71875 C-54.80171078 168.12837089 -62.28346365 157.3184298 -67.32421875 144.64453125 C-68.5510468 141.00948517 -69.53322713 137.39699549 -70.32421875 133.64453125 C-70.66453125 132.12859375 -70.66453125 132.12859375 -71.01171875 130.58203125 C-71.46805418 126.29247825 -71.32421875 121.95828912 -71.32421875 117.64453125 C-57.79421875 117.64453125 -44.26421875 117.64453125 -30.32421875 117.64453125 C-29.33421875 121.27453125 -28.34421875 124.90453125 -27.32421875 128.64453125 C-25.65676992 131.81080683 -25.65676992 131.81080683 -22.88671875 132.45703125 C-20.08120059 132.9259207 -20.08120059 132.9259207 -17.32421875 130.64453125 C-15.88328558 126.33036007 -15.91403957 122.64068069 -17.63671875 118.45703125 C-22.2734717 113.60461538 -28.02045911 110.83593599 -33.92578125 107.76953125 C-49.89903936 99.46491414 -63.20376788 90.46026226 -69.32421875 72.64453125 C-71.61402949 65.1052972 -71.65764201 57.66151471 -71.63671875 49.83203125 C-71.65283203 48.63771484 -71.66894531 47.44339844 -71.68554688 46.21289062 C-71.69368674 31.25995256 -67.96119012 17.40448499 -57.57421875 6.20703125 C-42.657584 -7.4665506 -17.6204445 -10.27612478 0 0 Z " fill="#0087C7" transform="translate(1213.32421875,471.35546875)"/>
<path d="M0 0 C0.708647 0.00800125 1.41729401 0.0160025 2.14741516 0.02424622 C4.48859502 0.05207451 6.82958487 0.08766583 9.1706543 0.12353516 C10.8317973 0.14537792 12.49294556 0.16682389 14.15409851 0.18789673 C17.65194116 0.23340988 21.14970763 0.28255245 24.64746094 0.33447266 C29.02393746 0.39932927 33.40046737 0.45724554 37.77707291 0.51262283 C54.99387665 0.73215748 72.20124678 1.04284761 89.41017723 1.61169052 C100.29439975 1.96873768 111.17599156 2.18395832 122.06518555 2.31884766 C122.83584288 2.32845142 123.60650021 2.33805519 124.40051079 2.34794998 C130.66247917 2.42488796 136.92451983 2.49506467 143.18658447 2.56365967 C160.30489103 2.7516381 177.40107053 2.95745291 194.50268555 3.796875 C203.20320064 4.22016437 211.91203758 4.3950203 220.61987305 4.60009766 C222.39396646 4.64351895 224.16805503 4.68713842 225.94213867 4.73095703 C230.18883173 4.83543267 234.43557923 4.93730508 238.68237305 5.03759766 C238.68237305 8.00759766 238.68237305 10.97759766 238.68237305 14.03759766 C238.02237305 14.36759766 237.36237305 14.69759766 236.68237305 15.03759766 C236.35237305 16.02759766 236.02237305 17.01759766 235.68237305 18.03759766 C235.02237305 18.03759766 234.36237305 18.03759766 233.68237305 18.03759766 C233.56764648 18.62927734 233.45291992 19.22095703 233.3347168 19.83056641 C230.88806709 28.10815374 221.41959099 33.3799381 214.37768555 37.33056641 C201.85756496 43.16907382 184.19153585 41.83101221 170.79393005 39.54467773 C167.90242712 39.07345913 165.07603059 38.78062408 162.15527344 38.57275391 C161.09719986 38.49597412 160.03912628 38.41919434 158.94898987 38.34008789 C157.82073288 38.26089111 156.69247589 38.18169434 155.5300293 38.10009766 C154.35653427 38.0151001 153.18303925 37.93010254 151.97398376 37.8425293 C148.23113236 37.57156489 144.48803801 37.30419319 140.74487305 37.03759766 C137.00528835 36.77087993 133.26577748 36.50329936 129.526474 36.23266602 C127.20271716 36.06449082 124.87879811 35.89853799 122.55470276 35.73510742 C117.21935886 35.34909477 111.9688168 34.84797879 106.68237305 34.03759766 C105.28699002 33.92062485 103.88966514 33.82282605 102.4909668 33.75634766 C101.77360352 33.71896484 101.05624023 33.68158203 100.31713867 33.64306641 C98.84839764 33.57256684 97.37964757 33.50225533 95.91088867 33.43212891 C92.78564655 33.26897495 89.77722103 33.05342626 86.6862793 32.53759766 C82.8556914 31.89999655 79.05738419 31.7214734 75.18237305 31.53759766 C70.25931935 31.30399054 65.54918224 30.84873252 60.68237305 30.03759766 C57.85200911 29.8090239 55.01858533 29.67218066 52.18237305 29.53759766 C47.26016116 29.30403048 42.54798916 28.85507348 37.68237305 28.03759766 C28.64354462 27.35622059 28.64354462 27.35622059 20.05737305 29.66259766 C13.22018614 36.49978457 13.12516329 41.46853867 13.11987305 50.97509766 C13.06617419 64.71433289 13.06617419 64.71433289 9.68237305 71.03759766 C9.29049805 72.13072266 8.89862305 73.22384766 8.49487305 74.35009766 C3.38349824 86.13539191 -7.06798473 93.9201773 -18.4465332 98.99462891 C-26.41984467 101.89105634 -33.63425275 102.37242788 -42.06762695 102.53759766 C-57.112177 102.83637961 -71.76447101 104.02507544 -84.31762695 113.03759766 C-84.97762695 113.03759766 -85.63762695 113.03759766 -86.31762695 113.03759766 C-86.31762695 113.69759766 -86.31762695 114.35759766 -86.31762695 115.03759766 C-86.97762695 115.03759766 -87.63762695 115.03759766 -88.31762695 115.03759766 C-89.39287889 117.68988578 -90.41218847 120.3212822 -91.31762695 123.03759766 C-94.28762695 123.53259766 -94.28762695 123.53259766 -97.31762695 124.03759766 C-97.31762695 102.58759766 -97.31762695 81.13759766 -97.31762695 59.03759766 C-93.31762695 58.03759766 -93.31762695 58.03759766 -91.31762695 59.03759766 C-90.7199707 61.83837891 -90.7199707 61.83837891 -90.25512695 65.35009766 C-89.53272974 70.7427724 -89.53272974 70.7427724 -88.31762695 76.03759766 C-87.65762695 76.03759766 -86.99762695 76.03759766 -86.31762695 76.03759766 C-85.80200195 76.75947266 -85.28637695 77.48134766 -84.75512695 78.22509766 C-80.27795553 83.39106468 -75.90314134 85.96097897 -69.0090332 86.49072266 C-67.42494994 86.54620976 -65.84008357 86.58245826 -64.25512695 86.60009766 C-63.4995752 86.61468018 -62.74402344 86.6292627 -61.96557617 86.64428711 C-55.15228359 86.52206562 -50.09111669 84.37340302 -44.8918457 79.99462891 C-38.49320352 72.7216381 -35.74351014 66.30148889 -36.01293945 56.55712891 C-36.32730985 53.95752754 -36.96773708 51.76037246 -37.81762695 49.28759766 C-40.93666351 39.85622522 -40.17504344 30.09153377 -36.31762695 21.03759766 C-35.82262695 19.55259766 -35.82262695 19.55259766 -35.31762695 18.03759766 C-34.65762695 18.03759766 -33.99762695 18.03759766 -33.31762695 18.03759766 C-33.21450195 17.43947266 -33.11137695 16.84134766 -33.00512695 16.22509766 C-32.21938663 13.7250148 -31.34843843 12.66224683 -29.31762695 11.03759766 C-28.65762695 11.03759766 -27.99762695 11.03759766 -27.31762695 11.03759766 C-27.31762695 10.37759766 -27.31762695 9.71759766 -27.31762695 9.03759766 C-26.65762695 9.03759766 -25.99762695 9.03759766 -25.31762695 9.03759766 C-25.31762695 8.37759766 -25.31762695 7.71759766 -25.31762695 7.03759766 C-23.4479509 6.04830305 -21.57161318 5.07159297 -19.69262695 4.10009766 C-18.64848633 3.55482422 -17.6043457 3.00955078 -16.52856445 2.44775391 C-11.06252365 0.04721774 -5.91479034 -0.07885732 0 0 Z " fill="#00A9E5" transform="translate(484.317626953125,275.96240234375)"/>
<path d="M0 0 C71.69294606 0 71.69294606 0 83 10 C96.96498868 25.8084682 100.77417057 45.75279976 99.90234375 66.30175781 C98.69789374 83.99018715 93.82311105 100.37340847 80.6484375 112.8359375 C68.15218791 123.04673731 55.18007165 122 39 122 C39 140.48 39 158.96 39 178 C26.13 178 13.26 178 0 178 C0 119.26 0 60.52 0 0 Z M39 45 C39 55.56 39 66.12 39 77 C51.11392398 78.1147408 51.11392398 78.1147408 57 74 C60.68386822 68.02959289 60.71660256 61.87938455 60 55 C58.64677399 51.32695796 57.1483756 48.39276546 54 46 C48.90858969 44.55535135 48.90858969 44.55535135 39 45 Z " fill="#0087C7" transform="translate(1252,469)"/>
<path d="M0 0 C27.06 0 54.12 0 82 0 C82 14.85 82 29.7 82 45 C67.81 45 53.62 45 39 45 C39 51.93 39 58.86 39 66 C51.54 66 64.08 66 77 66 C77 80.19 77 94.38 77 109 C64.46 109 51.92 109 39 109 C39 116.92 39 124.84 39 133 C53.19 133 67.38 133 82 133 C82 147.85 82 162.7 82 178 C54.94 178 27.88 178 0 178 C0 119.26 0 60.52 0 0 Z " fill="#0087C7" transform="translate(757,469)"/>
<path d="M0 0 C2.28412421 0.01071901 4.56746217 0.00005954 6.8515625 -0.01269531 C22.5223363 -0.02860603 34.46245695 4.08267463 48.2890625 11.26074219 C48.2890625 11.92074219 48.2890625 12.58074219 48.2890625 13.26074219 C48.8459375 13.46699219 49.4028125 13.67324219 49.9765625 13.88574219 C56.2304617 17.60427685 59.10618232 23.9593597 60.9765625 30.76074219 C62.35280639 41.7706933 59.7477419 50.35625903 53.2890625 59.26074219 C51.11933301 61.78683058 48.92185559 64.21150633 46.2890625 66.26074219 C45.6290625 66.26074219 44.9690625 66.26074219 44.2890625 66.26074219 C44.2890625 66.92074219 44.2890625 67.58074219 44.2890625 68.26074219 C41.98245691 69.8164996 39.69179371 71.24298983 37.2890625 72.63574219 C36.25011841 73.24518677 36.25011841 73.24518677 35.19018555 73.86694336 C27.59546493 78.29236126 20.43466961 81.63875352 12.03515625 84.32324219 C9.17757097 85.22608318 9.17757097 85.22608318 6.2265625 86.82324219 C2.60313725 88.59640773 -1.04121564 89.50662849 -4.9375 90.51464844 C-7.30785374 91.15230698 -9.58681759 91.87898992 -11.8984375 92.69824219 C-16.74395711 94.36579939 -21.70540442 95.55157146 -26.68823242 96.72729492 C-30.24379353 97.58153298 -33.68818101 98.56699249 -37.14453125 99.76464844 C-41.6306993 101.29461326 -46.12721957 102.28965495 -50.7734375 103.19824219 C-65.6465843 106.24190612 -79.56437938 109.58712079 -93.2109375 116.51074219 C-95.89639156 117.85346922 -97.85716022 118.63491384 -100.7109375 119.26074219 C-100.7109375 119.92074219 -100.7109375 120.58074219 -100.7109375 121.26074219 C-102.20703125 122.47949219 -102.20703125 122.47949219 -104.1484375 123.76074219 C-106.93625597 125.54727848 -106.93625597 125.54727848 -108.7109375 128.26074219 C-109.3709375 128.26074219 -110.0309375 128.26074219 -110.7109375 128.26074219 C-110.91589844 128.89882813 -111.12085938 129.53691406 -111.33203125 130.19433594 C-111.60144531 131.020625 -111.87085938 131.84691406 -112.1484375 132.69824219 C-112.41527344 133.52195312 -112.68210937 134.34566406 -112.95703125 135.19433594 C-113.7109375 137.26074219 -113.7109375 137.26074219 -114.7109375 138.26074219 C-115.01817457 141.29243048 -114.98944944 144.34041186 -115.0234375 147.38574219 C-115.06694336 148.6503125 -115.06694336 148.6503125 -115.11132812 149.94042969 C-115.17218297 155.96974088 -114.01802787 159.23813946 -110.7109375 164.26074219 C-110.7109375 164.92074219 -110.7109375 165.58074219 -110.7109375 166.26074219 C-110.0509375 166.26074219 -109.3909375 166.26074219 -108.7109375 166.26074219 C-108.2159375 166.94136719 -107.7209375 167.62199219 -107.2109375 168.32324219 C-100.42681824 176.29458232 -90.5031918 180.99665742 -80.7109375 184.26074219 C-79.5234375 187.32324219 -79.5234375 187.32324219 -78.7109375 190.26074219 C-80.7109375 192.26074219 -80.7109375 192.26074219 -84.0859375 193.44824219 C-89.05730571 195.21139654 -93.38883324 197.90323435 -97.87890625 200.63964844 C-100.50079776 202.1404553 -102.80024443 203.44878703 -105.7109375 204.26074219 C-117.76226986 200.66808084 -131.6266747 188.16171303 -137.7109375 177.26074219 C-137.7109375 176.27074219 -137.7109375 175.28074219 -137.7109375 174.26074219 C-138.3709375 174.26074219 -139.0309375 174.26074219 -139.7109375 174.26074219 C-139.7109375 172.94074219 -139.7109375 171.62074219 -139.7109375 170.26074219 C-140.3709375 170.26074219 -141.0309375 170.26074219 -141.7109375 170.26074219 C-144.66507776 160.10588503 -146.51331051 150.93747987 -145.7109375 140.26074219 C-145.65164063 139.35195313 -145.59234375 138.44316406 -145.53125 137.50683594 C-144.44676573 128.63258047 -139.89489902 121.01566622 -135.7109375 113.26074219 C-135.0509375 113.26074219 -134.3909375 113.26074219 -133.7109375 113.26074219 C-133.45570313 112.52210938 -133.20046875 111.78347656 -132.9375 111.02246094 C-127.23428309 98.18114134 -108.95073947 89.72610525 -96.7109375 84.26074219 C-93.1696778 82.93764149 -89.58731375 81.82569295 -85.9609375 80.76074219 C-84.97085693 80.46449951 -83.98077637 80.16825684 -82.96069336 79.86303711 C-73.46510598 77.08048322 -63.86080196 74.9093567 -54.19580078 72.81054688 C-44.36065983 70.6344084 -34.64854225 68.00382831 -24.98046875 65.18261719 C-22.0480256 64.35578734 -19.11568184 63.63654215 -16.1484375 62.94824219 C-1.59554603 59.36870033 12.50520429 54.23849461 25.8515625 47.44824219 C28.2890625 46.26074219 28.2890625 46.26074219 30.2890625 46.26074219 C30.2890625 45.60074219 30.2890625 44.94074219 30.2890625 44.26074219 C31.93909078 42.90687283 33.6065012 41.57396076 35.2890625 40.26074219 C36.8012492 37.23636879 36.46169619 34.59832685 36.2890625 31.26074219 C35.27169479 28.49931553 34.92735509 27.57988848 32.2890625 26.26074219 C32.2890625 25.60074219 32.2890625 24.94074219 32.2890625 24.26074219 C26.55337252 22.54003519 18.81246055 21.80369788 13.2109375 24.12011719 C11.47123226 25.29195853 11.47123226 25.29195853 9.2890625 27.26074219 C8.2990625 27.59074219 7.3090625 27.92074219 6.2890625 28.26074219 C6.2890625 28.92074219 6.2890625 29.58074219 6.2890625 30.26074219 C4.10529484 31.39351487 1.91749122 32.51697008 -0.2734375 33.63574219 C-0.88251953 33.95285156 -1.49160156 34.26996094 -2.11914062 34.59667969 C-8.82375207 38.00219661 -15.3029782 39.57004906 -22.7734375 40.01074219 C-23.45470703 40.06617188 -24.13597656 40.12160156 -24.83789062 40.17871094 C-30.62963066 40.54591059 -34.70366684 39.52619543 -39.5859375 36.44824219 C-41.7109375 34.26074219 -41.7109375 34.26074219 -41.84375 31.62402344 C-41.79992187 30.84414063 -41.75609375 30.06425781 -41.7109375 29.26074219 C-33.71955331 28.1762724 -25.73208536 27.10507354 -17.7109375 26.26074219 C-18.0409375 25.93074219 -18.3709375 25.60074219 -18.7109375 25.26074219 C-20.702017 25.50526072 -22.69299742 25.75060218 -24.68359375 25.99902344 C-28.53153137 26.33168385 -32.35036807 26.3793029 -36.2109375 26.38574219 C-36.92967041 26.39017334 -37.64840332 26.39460449 -38.38891602 26.39916992 C-43.58681191 26.38486778 -43.58681191 26.38486778 -44.7109375 25.26074219 C-45.36937945 19.86151817 -43.79681594 15.62871911 -40.7109375 11.26074219 C-37.37348714 8.22565913 -34.12203858 6.34201379 -29.9609375 4.63574219 C-28.51460937 4.02859375 -28.51460937 4.02859375 -27.0390625 3.40917969 C-17.9697099 0.27961435 -9.48415245 -0.05296133 0 0 Z M-16.7109375 11.26074219 C-17.0409375 12.25074219 -17.3709375 13.24074219 -17.7109375 14.26074219 C-12.62790064 14.37395075 -12.62790064 14.37395075 -7.7109375 13.26074219 C-7.7109375 12.60074219 -7.7109375 11.94074219 -7.7109375 11.26074219 C-10.6809375 11.26074219 -13.6509375 11.26074219 -16.7109375 11.26074219 Z " fill="#0090CF" transform="translate(442.7109375,426.7392578125)"/>
<path d="M0 0 C33.66 0 67.32 0 102 0 C102 14.85 102 29.7 102 45 C91.44 45 80.88 45 70 45 C70 88.89 70 132.78 70 178 C57.13 178 44.26 178 31 178 C31 134.11 31 90.22 31 45 C20.77 45 10.54 45 0 45 C0 30.15 0 15.3 0 0 Z " fill="#0087C7" transform="translate(1411,469)"/>
<path d="M0 0 C7.92 0 15.84 0 24 0 C24 54.45 24 108.9 24 165 C19.89359242 166.64256303 16.47749041 167.60031334 12.1875 168.4375 C7.62330859 169.38442768 3.38602914 170.42502804 -0.9140625 172.203125 C-3.54525839 173.20830096 -6.22627073 173.92433917 -8.9375 174.6875 C-18.1392012 177.4641537 -27.65308505 181.46376247 -35.69921875 186.78515625 C-38.53044032 188.28007969 -39.73807088 188.12001513 -42.8125 187.375 C-43.99779297 187.10816406 -43.99779297 187.10816406 -45.20703125 186.8359375 C-48.16774346 185.94979426 -51.0203492 184.88988414 -53.9050293 183.78515625 C-55.90353555 183.03615309 -57.91124548 182.34556744 -59.9375 181.67578125 C-70.1107729 178.28469028 -79.57595228 174.11055324 -89 169 C-89.61407715 168.66758301 -90.2281543 168.33516602 -90.86083984 167.99267578 C-98.10275677 164.03026514 -98.10275677 164.03026514 -101 162 C-101 161.34 -101 160.68 -101 160 C-101.8353125 159.6596875 -101.8353125 159.6596875 -102.6875 159.3125 C-105.66159588 157.62449964 -107.72008865 155.53323483 -110 153 C-110 152.34 -110 151.68 -110 151 C-110.66 151 -111.32 151 -112 151 C-117.37575173 142.21960551 -118.99026531 134.31630819 -118 124 C-115.59738306 114.57656229 -108.65059969 107.42964178 -100.5859375 102.37890625 C-95.59917051 99.71979938 -90.38264362 97.70368078 -85 96 C-84.401875 95.81018555 -83.80375 95.62037109 -83.1875 95.42480469 C-76.01289179 93.48283141 -68.66196088 93.69808613 -61.2890625 93.73925781 C-59.00493829 93.74997683 -56.72160033 93.73931736 -54.4375 93.7265625 C-40.22718449 93.71000025 -28.41911189 95.97278167 -16.76953125 104.6640625 C-11.73158969 109.71397066 -13 112.12636321 -13 120 C-20.26 120 -27.52 120 -35 120 C-27.17199127 121.62283388 -27.17199127 121.62283388 -19.375 122.625 C-18.53710938 122.69976562 -17.69921875 122.77453125 -16.8359375 122.8515625 C-16.23007812 122.90054688 -15.62421875 122.94953125 -15 123 C-14.703125 127.65625 -14.703125 127.65625 -17.375 130.75 C-23.45327198 135.27667562 -31.91715975 134.31535672 -39.078125 133.49609375 C-49.90454351 131.65791841 -58.5707742 127.85806451 -66.71484375 120.4375 C-71.41473891 116.39260245 -75.87476634 116.33246213 -81.9609375 116.5703125 C-86.12053602 117.15843054 -87.96625545 118.13024164 -91 121 C-93.49117954 124.73676931 -93.8470367 127.67691645 -93 132 C-88.31836611 142.07195548 -72.77532859 146.3441295 -63.1015625 149.9453125 C-59.35058708 151.22083311 -55.57794544 152.28457298 -51.73046875 153.2265625 C-49.48974036 153.86127526 -47.41437369 154.59363835 -45.25 155.4375 C-40.84848048 157.11805205 -36.38835382 158.27321876 -31.8125 159.375 C-30.96333008 159.58342529 -30.11416016 159.79185059 -29.23925781 160.0065918 C-26.49441303 160.67776 -23.74761091 161.34025086 -21 162 C-20.0188623 162.2357373 -19.03772461 162.47147461 -18.02685547 162.71435547 C-13.49674834 163.80060776 -8.9652028 164.88048287 -4.43165588 165.95228577 C-3.60105432 166.1486667 -2.77045275 166.34504763 -1.91468143 166.54737949 C-0.96691412 166.77142664 -0.96691412 166.77142664 0 167 C-0.02959745 166.32268892 -0.05919491 165.64537785 -0.08968925 164.94754219 C-0.88914509 146.14687651 -1.15143478 127.37845266 -1.1343255 108.56254721 C-1.13173518 104.80399609 -1.13415624 101.045447 -1.13571167 97.28689575 C-1.13750857 91.01287383 -1.13518722 84.73886385 -1.13037109 78.46484375 C-1.12487102 71.21613471 -1.12674205 63.96745355 -1.1321975 56.71874511 C-1.13672654 50.44813513 -1.13738207 44.17753355 -1.13475883 37.90692246 C-1.1332028 34.18043503 -1.13298509 30.45396079 -1.13629532 26.72747421 C-1.13970577 22.60459457 -1.13498825 18.48176397 -1.12939453 14.35888672 C-1.13141876 13.12901535 -1.13344299 11.89914398 -1.13552856 10.63200378 C-1.13270874 9.51697983 -1.12988892 8.40195587 -1.12698364 7.25314331 C-1.1264181 5.7950314 -1.1264181 5.7950314 -1.12584114 4.30746269 C-1 2 -1 2 0 0 Z M-50 105 C-50 105.66 -50 106.32 -50 107 C-48.741875 107.350625 -47.48375 107.70125 -46.1875 108.0625 C-45.47980469 108.25972656 -44.77210938 108.45695312 -44.04296875 108.66015625 C-41.80755841 109.19563817 -41.80755841 109.19563817 -39 108 C-39.33 107.01 -39.66 106.02 -40 105 C-43.3 105 -46.6 105 -50 105 Z " fill="#0099D7" transform="translate(362,333)"/>
<path d="M0 0 C12.87 0 25.74 0 39 0 C39 44.55 39 89.1 39 135 C50.88 135 62.76 135 75 135 C75 149.19 75 163.38 75 178 C50.25 178 25.5 178 0 178 C0 119.26 0 60.52 0 0 Z " fill="#0087C7" transform="translate(1655,469)"/>
<path d="M0 0 C12.87 0 25.74 0 39 0 C39 58.74 39 117.48 39 178 C26.13 178 13.26 178 0 178 C0 119.26 0 60.52 0 0 Z " fill="#0087C7" transform="translate(1362,469)"/>
<path d="M0 0 C7.92 0 15.84 0 24 0 C24.495 0.99 24.495 0.99 25 2 C26.82190269 3.09712081 28.68239155 4.13091967 30.5625 5.125 C31.57441406 5.66382813 32.58632813 6.20265625 33.62890625 6.7578125 C34.41136719 7.16773438 35.19382812 7.57765625 36 8 C36 8.66 36 9.32 36 10 C36.66 10 37.32 10 38 10 C44.99130075 17.14709575 47.14031308 24.71159972 47.375 34.5 C47.08501893 46.12244128 43.63343588 53.24626865 35.4921875 61.53515625 C27.77710336 68.42814126 19.54717231 70.27713679 9.453125 70.15625 C6.07388163 69.94101157 3.18200445 69.14071858 0 68 C-1.093125 67.649375 -2.18625 67.29875 -3.3125 66.9375 C-11.73489186 63.15407792 -18.65257538 55.53204042 -22 47 C-24.41477147 37.65249754 -23.76287294 27.83202821 -20 19 C-19.67 18.01 -19.34 17.02 -19 16 C-18.34 16 -17.68 16 -17 16 C-16.76925781 15.26265625 -16.53851563 14.5253125 -16.30078125 13.765625 C-14.74929082 10.46696067 -13.04201267 8.9925257 -10.1875 6.75 C-8.90939453 5.72132813 -8.90939453 5.72132813 -7.60546875 4.671875 C-4.96999847 2.98074864 -3.08085218 2.3761184 0 2 C0 1.34 0 0.68 0 0 Z " fill="#01AEEA" transform="translate(362,240)"/>
<path d="M0 0 C-0.57341863 4.25414629 -2.05426072 7.09867744 -4.375 10.6875 C-4.98085937 11.64011719 -5.58671875 12.59273438 -6.2109375 13.57421875 C-8 16 -8 16 -11 18 C-13.1015625 18.30859375 -13.1015625 18.30859375 -15.625 18.4375 C-20.21047145 18.78022854 -24.60974801 19.44489993 -29.125 20.3125 C-37.84326464 21.95739736 -46.63080908 22.96977732 -55.4375 24 C-64.8588908 25.10338617 -74.23991997 26.25246058 -83.58081055 27.92358398 C-90.81299834 29.19627529 -98.09159238 30.06247937 -105.38085938 30.93896484 C-110.79618493 31.59106755 -116.17759191 32.32152384 -121.5625 33.1875 C-135.58299837 35.20508391 -147.11995617 34.93011822 -158.859375 26.6796875 C-163.33607925 23.16694511 -168.09953754 18.94784773 -171 14 C-171 12.68 -171 11.36 -171 10 C-166.35479018 9.51470683 -161.70894285 9.03583132 -157.0625 8.5625 C-156.37793732 8.49274963 -155.69337463 8.42299927 -154.98806763 8.35113525 C-145.71698837 7.41219853 -136.46415809 6.61454555 -127.15234375 6.2109375 C-124.11286906 6.08007529 -124.11286906 6.08007529 -121.62890625 5.5078125 C-117.00404078 4.61445067 -112.29171518 4.60044855 -107.59375 4.39453125 C-103.61360961 4.2021578 -99.9073547 3.80819877 -96 3 C-93.5437764 2.82213553 -91.08480725 2.68089937 -88.625 2.5625 C-81.07450534 2.16196494 -73.55609167 1.55309948 -66.02612305 0.87353516 C-59.45007675 0.286455 -52.8714754 -0.25204385 -46.2890625 -0.76171875 C-45.43896103 -0.82772278 -44.58885956 -0.89372681 -43.71299744 -0.96173096 C-40.26874979 -1.22872784 -36.82447502 -1.49521304 -33.37979126 -1.75653076 C-30.94963071 -1.94091123 -28.51972985 -2.1284485 -26.08984375 -2.31640625 C-25.36258087 -2.3705217 -24.63531799 -2.42463715 -23.88601685 -2.48039246 C-20.7968633 -2.72144598 -17.77295632 -3.03861448 -14.71704102 -3.55834961 C-9.03557413 -4.48186238 -4.66923027 -3.25431201 0 0 Z " fill="#01A8E5" transform="translate(244,309)"/>
<path d="M0 0 C1.10832687 0.09818275 1.10832687 0.09818275 2.23904419 0.198349 C4.63515432 0.41404491 7.02812285 0.65419517 9.421875 0.89453125 C11.0800658 1.04796528 12.73843531 1.19947954 14.39697266 1.34912109 C17.73370384 1.65100944 21.06963233 1.96024096 24.40527344 2.27392578 C32.20499701 2.99612241 40.01892621 3.51884252 47.83300781 4.05932617 C52.99105628 4.42805314 58.05171089 4.96953418 63.171875 5.70703125 C66.7582587 5.98403538 70.35067034 6.14096578 73.94335938 6.3125 C77.05752036 6.47507546 80.0538321 6.68709788 83.1328125 7.20703125 C87.93600965 7.99727448 92.76924468 8.09836428 97.62695312 8.3125 C101.59253101 8.50529423 105.27706444 8.91820886 109.171875 9.70703125 C111.980859 9.94407014 114.79373537 10.07493347 117.609375 10.20703125 C122.55452708 10.4402524 127.28396802 10.89138782 132.171875 11.70703125 C136.12592681 12.11191318 140.08589949 12.44026297 144.046875 12.76953125 C145.11679687 12.86041016 146.18671875 12.95128906 147.2890625 13.04492188 C149.91649213 13.26778421 152.5440888 13.48842031 155.171875 13.70703125 C156.171875 16.70703125 156.171875 16.70703125 154.859375 19.39453125 C154.3025 20.15765625 153.745625 20.92078125 153.171875 21.70703125 C152.511875 21.70703125 151.851875 21.70703125 151.171875 21.70703125 C150.92824219 22.29484375 150.68460938 22.88265625 150.43359375 23.48828125 C147.00387786 29.51948443 139.2536368 33.66615035 133.171875 36.70703125 C115.97552988 41.07158585 95.61130247 35.9103068 78.52758789 32.90307617 C70.30736285 31.4917424 62.03104496 30.49268241 53.75790405 29.45007324 C44.64772043 28.30162136 35.56271641 27.05412128 26.48974609 25.640625 C22.46825866 25.02233097 18.48217017 24.51155339 14.421875 24.20703125 C12.67108513 24.04887749 10.9211421 23.88122194 9.171875 23.70703125 C8.54265137 23.6517627 7.91342773 23.59649414 7.26513672 23.53955078 C-5.20348521 22.32897678 -5.20348521 22.32897678 -9.18359375 18.35546875 C-12.828125 12.34761914 -12.828125 12.34761914 -12.828125 8.70703125 C-13.488125 8.70703125 -14.148125 8.70703125 -14.828125 8.70703125 C-14.828125 6.72703125 -14.828125 4.74703125 -14.828125 2.70703125 C-9.6219863 0.08158715 -5.83888262 -0.63487682 0 0 Z " fill="#01A8E5" transform="translate(518.828125,305.29296875)"/>
<path d="M0 0 C5.58462705 0.97123949 9.15741379 6.29707691 12.3125 10.75 C13.875 13.5 13.875 13.5 13.875 16.5 C14.535 16.5 15.195 16.5 15.875 16.5 C21.98889827 30.66568394 21.41042064 44.29077291 15.875 58.5 C15.215 58.5 14.555 58.5 13.875 58.5 C13.76285156 59.08136719 13.65070313 59.66273438 13.53515625 60.26171875 C11.22771553 68.08517159 3.19822853 75.13251771 -3.75 78.9375 C-6.60212029 79.61300217 -9.20489471 79.63581885 -12.125 79.5 C-12.5625 77.375 -12.5625 77.375 -12.125 74.5 C-10.5266823 72.89716728 -8.78746146 71.56965596 -7.0078125 70.171875 C0.12384105 63.83920339 3.38917967 53.47922383 4.03515625 44.19921875 C4.09526975 39.2269736 3.59010747 34.41636387 2.875 29.5 C2.215 29.5 1.555 29.5 0.875 29.5 C0.22665346 28.230447 -0.41857815 26.95930294 -1.0625 25.6875 C-1.60197266 24.62595703 -1.60197266 24.62595703 -2.15234375 23.54296875 C-3.125 21.5 -3.125 21.5 -4.125 18.5 C-6.04166667 17.33333333 -6.04166667 17.33333333 -8.125 16.5 C-8.785 16.17 -9.445 15.84 -10.125 15.5 C-10.125 14.84 -10.125 14.18 -10.125 13.5 C-10.785 13.5 -11.445 13.5 -12.125 13.5 C-12.15005615 14.80445068 -12.1751123 16.10890137 -12.20092773 17.45288086 C-12.29636883 22.37515144 -12.39623342 27.2973247 -12.49731445 32.21948242 C-12.54015448 34.33436783 -12.58185545 36.44927668 -12.62231445 38.56420898 C-12.82487505 49.11486531 -13.06780464 59.64088998 -13.76170349 70.17160034 C-14.40994269 80.39532415 -14.48775837 90.6456801 -14.67724609 100.88598633 C-14.72926549 103.63370804 -14.78630938 106.38129333 -14.84375 109.12890625 C-14.85732544 109.95298477 -14.87090088 110.77706329 -14.8848877 111.62611389 C-14.99197543 116.65714074 -15.45791824 121.51275414 -16.125 126.5 C-16.23311277 128.13780963 -16.31911002 129.7774181 -16.37109375 131.41796875 C-16.41834595 132.7021167 -16.41834595 132.7021167 -16.46655273 134.01220703 C-16.51404663 135.33647705 -16.51404663 135.33647705 -16.5625 136.6875 C-17.46146287 158.0046943 -17.46146287 158.0046943 -21.125 163.5 C-23.75 163.6875 -23.75 163.6875 -26.125 163.5 C-28.01046997 158.55489289 -28.691861 153.90905451 -29.18359375 148.6875 C-29.26645126 147.85001221 -29.34930878 147.01252441 -29.43467712 146.1496582 C-30.2227031 137.94307501 -30.77413837 129.73314554 -31.1875 121.5 C-31.2285788 120.71149658 -31.26965759 119.92299316 -31.3119812 119.1105957 C-32.29154383 99.92817961 -32.54172559 80.72693429 -32.78344727 61.5234375 C-32.81507588 59.10937249 -32.84689234 56.69530993 -32.87890625 54.28125 C-32.89329239 53.11746826 -32.90767853 51.95368652 -32.92250061 50.75463867 C-33.0500503 42.01654317 -33.39395544 33.29888675 -33.96742249 24.57824707 C-34.01676437 23.70099976 -34.06610626 22.82375244 -34.11694336 21.91992188 C-34.19131874 20.77807434 -34.19131874 20.77807434 -34.26719666 19.61315918 C-34.09827235 17.10280513 -33.47050682 15.61618814 -32.125 13.5 C-29.6484375 12.0078125 -29.6484375 12.0078125 -26.5 10.625 C-25.34757812 10.11839844 -24.19515625 9.61179687 -23.0078125 9.08984375 C-18.13943313 7.06156244 -13.20267851 5.2103876 -8.24365234 3.41650391 C-5.38152076 2.37861911 -2.8385121 0.6678852 0 0 Z " fill="#0073B7" transform="translate(397.125,731.5)"/>
<path d="M0 0 C2.3046875 -0.26953125 2.3046875 -0.26953125 5 0 C12.66322967 8.13997437 14.23615341 19.51642761 14.3125 30.1875 C14.31813965 30.93580078 14.3237793 31.68410156 14.32958984 32.45507812 C14.13733207 47.22308204 7.15429977 59.67915175 -2.8125 70.25 C-13.26236971 80.23587936 -24.38601976 83.44868263 -38.5234375 83.37109375 C-40.95052225 83.38847512 -43.37760555 83.40605952 -45.8046875 83.42382812 C-49.59182415 83.43388725 -53.37886618 83.43749826 -57.16601562 83.43579102 C-60.8479361 83.43938103 -64.52914482 83.46679413 -68.2109375 83.49609375 C-69.32898773 83.48791122 -70.44703796 83.4797287 -71.59896851 83.47129822 C-82.49823932 83.57340235 -91.92079009 86.43924206 -100 94 C-100.495 94.99 -100.495 94.99 -101 96 C-101.66 96 -102.32 96 -103 96 C-103.433125 97.1446875 -103.433125 97.1446875 -103.875 98.3125 C-105 101 -105 101 -107 104 C-108.32 104 -109.64 104 -111 104 C-109.19905387 92.86257 -106.09971277 81.41690888 -96.7421875 74.27734375 C-87.19034271 68.18392552 -77.04238752 66.08808871 -65.8359375 65.60546875 C-64.45178214 65.53662224 -63.06766849 65.46693309 -61.68359375 65.39648438 C-59.53844576 65.28998248 -57.39359411 65.18825324 -55.24755859 65.10131836 C-43.59732173 64.61757616 -32.85032985 63.12081062 -22.9375 56.4375 C-22.05964844 55.85871094 -21.18179688 55.27992188 -20.27734375 54.68359375 C-18.00861193 53.09872038 -18.00861193 53.09872038 -16.31640625 51.28515625 C-15 50 -15 50 -13 50 C-12.72929687 49.42378906 -12.45859375 48.84757812 -12.1796875 48.25390625 C-10.9897289 45.98037607 -9.62522282 44.01682437 -8.125 41.9375 C-1.3269367 31.86506392 0.17262707 21.50178061 0.0625 9.625 C0.05798828 8.69816406 0.05347656 7.77132813 0.04882812 6.81640625 C0.03711574 4.54420291 0.02071372 2.27213612 0 0 Z " fill="#00A1DE" transform="translate(499,315)"/>
<path d="M0 0 C1.32 0 2.64 0 4 0 C4.01458252 0.64960693 4.02916504 1.29921387 4.04418945 1.96850586 C4.11941662 4.9587194 4.21582612 7.94790597 4.3125 10.9375 C4.33505859 11.95908203 4.35761719 12.98066406 4.38085938 14.03320312 C4.58370855 19.80518421 5.21450996 24.68531477 7.36791992 30.06469727 C8 32 8 32 8 36 C8.66 36 9.32 36 10 36 C10.30292969 36.59167969 10.60585937 37.18335938 10.91796875 37.79296875 C13.49625956 42.65602187 16.01146698 46.23938315 20 50 C20 50.66 20 51.32 20 52 C20.56589844 52.27070313 21.13179688 52.54140625 21.71484375 52.8203125 C24.90003681 54.46463439 27.86692073 56.42692027 30.87890625 58.3671875 C40.90898867 63.61446466 50.26389098 64.69706909 61.375 65.0625 C77.0593545 65.62011051 93.1464825 66.52577881 105.3125 77.625 C111.95007148 84.75871319 114.62340759 93.52822234 116 103 C113 104 113 104 110 103 C109.46375 101.80375 108.9275 100.6075 108.375 99.375 C104.53097752 91.28079418 97.22902975 87.75088777 89.1295929 84.86172485 C83.87654278 83.41531186 78.76722438 83.49558571 73.3515625 83.56640625 C70.94010352 83.55680078 68.5286452 83.54703006 66.1171875 83.53710938 C62.36971522 83.545691 58.62241573 83.56251531 54.875 83.5847168 C33.65393648 83.66970136 20.39431692 82.06686042 4.6875 66.9375 C-3 59.01983533 -3 59.01983533 -3 54 C-3.66 54 -4.32 54 -5 54 C-10.77604634 42.00954666 -11.63514216 25.15991429 -7.3125 12.5625 C-6.20703125 10.171875 -6.20703125 10.171875 -5 8 C-4.59136719 7.20078125 -4.18273437 6.4015625 -3.76171875 5.578125 C-1.50635996 1.52825473 -1.50635996 1.52825473 0 0 Z " fill="#00A1DE" transform="translate(244,315)"/>
<path d="M0 0 C9.24400721 0.36976029 18.21290941 1.22995833 27.33129883 2.76831055 C35.24782875 4.08919719 43.1978838 5.06026285 51.16796875 5.99755859 C52.14378906 6.11437988 53.11960937 6.23120117 54.125 6.3515625 C54.99382813 6.45291504 55.86265625 6.55426758 56.7578125 6.65869141 C59 7 59 7 62 8 C64.27692024 8.32139215 66.55930921 8.60452999 68.84375 8.8671875 C70.24122144 9.03075343 71.63868196 9.19441264 73.03613281 9.3581543 C73.7659436 9.44253754 74.49575439 9.52692078 75.24768066 9.61386108 C104.63369883 13.02094142 104.63369883 13.02094142 119 16 C119.5 18.5625 119.5 18.5625 119 22 C116.61574607 24.69751357 113.8464796 26.81040031 111 29 C109.7625 30.11375 109.7625 30.11375 108.5 31.25 C98.53635052 38.22455464 85.71084607 38.06822516 74.1602478 36.15377808 C70.74408919 35.53991314 67.34086218 34.86817244 63.9375 34.1875 C62.55683611 33.92280641 61.17597663 33.65913096 59.79492188 33.39648438 C53.82552632 32.24730472 47.89567478 31.01402702 42.0078125 29.4921875 C37.41855276 28.30927661 32.80889186 27.33917956 28.15234375 26.46484375 C27.48063644 26.33871201 26.80892914 26.21258026 26.11686707 26.08262634 C23.34945705 25.56631989 20.58118862 25.05497114 17.81176758 24.54956055 C15.75746293 24.17313964 13.70487744 23.78828689 11.65234375 23.40234375 C10.44570068 23.18054443 9.23905762 22.95874512 7.99584961 22.73022461 C5 22 5 22 2 20 C1.63840963 17.49554213 1.44208744 15.20088311 1.375 12.6875 C1.19637721 8.34526513 0.99970601 4.23645906 0 0 Z " fill="#00A5E2" transform="translate(513,329)"/>
<path d="M0 0 C-0.144375 1.2375 -0.28875 2.475 -0.4375 3.75 C-1.07833262 9.49002931 -1.5421622 15.24293318 -2 21 C-10.51834408 23.37219709 -19.10435091 24.99236408 -27.81689453 26.46582031 C-32.35040712 27.25248695 -36.76443033 28.16582756 -41.19140625 29.42578125 C-47.65240972 31.24689602 -54.19726767 32.54395807 -60.78759766 33.78979492 C-62.86737341 34.18604693 -64.94323267 34.59963784 -67.01953125 35.01367188 C-79.94744734 37.51526774 -94.17958023 39.66099709 -105.75 32.125 C-107.17818883 31.09918785 -108.59623097 30.05898366 -110 29 C-110.928125 28.319375 -111.85625 27.63875 -112.8125 26.9375 C-115.24333286 24.78447661 -117.18143411 22.69417168 -119 20 C-119 18.68 -119 17.36 -119 16 C-111.27948673 14.26612193 -103.50717848 13.24162077 -95.65698242 12.31124878 C-85.34553809 11.08662203 -75.06318357 9.77940867 -64.81860352 8.07446289 C-57.54896725 6.88267945 -50.24574046 6.01343681 -42.93334961 5.12915039 C-35.70266893 4.24329736 -28.51152127 3.20055726 -21.32617188 2.00195312 C-14.23964181 0.82842893 -7.19967197 -0.18460697 0 0 Z " fill="#00A5E2" transform="translate(234,329)"/>
<path d="M0 0 C1.65902344 0.7734375 1.65902344 0.7734375 3.3515625 1.5625 C5.7073892 2.68258298 8.04887367 3.8199164 10.375 5 C10.045 6.65 9.715 8.3 9.375 10 C8.385 10 7.395 10 6.375 10 C6.375 10.66 6.375 11.32 6.375 12 C5.11102695 12.76150475 3.83817997 13.50827365 2.5625 14.25 C1.85480469 14.66765625 1.14710938 15.0853125 0.41796875 15.515625 C-8.67494501 19.95119269 -16.45548101 21.58404523 -26.5625 21.5390625 C-27.76382568 21.55085541 -28.96515137 21.56264832 -30.20288086 21.57479858 C-34.01038787 21.60982997 -37.81734557 21.61920301 -41.625 21.625 C-45.43248856 21.64142408 -49.23973709 21.66363511 -53.04711914 21.69662476 C-55.40561765 21.71602056 -57.76422538 21.72561555 -60.12280273 21.72354126 C-69.8639735 21.78602872 -78.79310531 22.75389679 -87.625 27 C-88.759375 27.433125 -89.89375 27.86625 -91.0625 28.3125 C-97.0972912 31.17108531 -102.85709455 34.69532647 -105.625 41 C-106.34666191 43.31691454 -107.02559529 45.64848923 -107.625 48 C-109.5625 48.5625 -109.5625 48.5625 -111.625 49 C-111.955 48.67 -112.285 48.34 -112.625 48 C-112.37308257 45.63197616 -112.03735318 43.34233608 -111.625 41 C-111.42197266 39.82630859 -111.42197266 39.82630859 -111.21484375 38.62890625 C-108.64170569 24.76855752 -104.20307601 14.6190137 -92.625 6 C-87.5736889 3.13330681 -82.47163965 1.8949768 -76.70800781 1.81054688 C-75.73309387 1.79382935 -74.75817993 1.77711182 -73.75372314 1.7598877 C-72.70577576 1.74631226 -71.65782837 1.73273682 -70.578125 1.71875 C-68.9503714 1.69113586 -68.9503714 1.69113586 -67.28973389 1.66296387 C-63.81821079 1.60424388 -60.34663799 1.55144948 -56.875 1.5 C-52.31761152 1.43204563 -47.76036787 1.35828997 -43.203125 1.28125 C-42.16327454 1.26767456 -41.12342407 1.25409912 -40.05206299 1.2401123 C-30.72905449 1.08228536 -23.64409039 0.38281897 -15.3359375 -4.13671875 C-9.95227637 -5.85111228 -4.86426491 -2.27834422 0 0 Z " fill="#009DDB" transform="translate(499.625,399)"/>
<path d="M0 0 C0.928125 0.495 1.85625 0.99 2.8125 1.5 C11.38693516 5.39747053 18.80606008 5.64493903 28.08203125 5.7109375 C30.29232512 5.73900531 32.50261149 5.76766977 34.71289062 5.796875 C38.16869906 5.83807104 41.62436709 5.87499517 45.08032227 5.90136719 C48.43534629 5.92913621 51.78975012 5.97500058 55.14453125 6.0234375 C56.67470634 6.0283168 56.67470634 6.0283168 58.23579407 6.03329468 C69.85539498 6.23018331 77.94518734 9.16843514 86.46484375 17.0234375 C94.24577581 25.14094932 97.88575391 37.48883624 97.9375 48.5625 C97.89625 49.861875 97.855 51.16125 97.8125 52.5 C96.4925 52.5 95.1725 52.5 93.8125 52.5 C93.57015625 51.82453125 93.3278125 51.1490625 93.078125 50.453125 C91.251909 45.59258087 89.84057429 41.9526351 85.8125 38.5 C85.8125 37.84 85.8125 37.18 85.8125 36.5 C85.1525 36.2525 84.4925 36.005 83.8125 35.75 C81.47878285 34.77761785 79.33789602 33.73702977 77.11035156 32.56079102 C60.61828979 24.31264973 41.2662335 25.97684462 23.37841797 26.0847168 C-11.31481463 26.2257462 -11.31481463 26.2257462 -23.1875 14.5 C-24.25 11.125 -24.25 11.125 -24.1875 8.5 C-23.50945312 8.26925781 -22.83140625 8.03851563 -22.1328125 7.80078125 C-17.14144795 6.05172968 -12.50345441 4.19636356 -7.875 1.625 C-3.61263711 -0.56668817 -3.61263711 -0.56668817 0 0 Z " fill="#009DDB" transform="translate(262.1875,394.5)"/>
<path d="M0 0 C4.41375 -0.0825 8.8275 -0.165 13.375 -0.25 C15.43113525 -0.30462402 15.43113525 -0.30462402 17.52880859 -0.36035156 C26.39595106 -0.44001579 33.61409466 0.45257656 40.65625 6.1484375 C41.2646875 6.88320313 41.873125 7.61796875 42.5 8.375 C43.1290625 9.10460937 43.758125 9.83421875 44.40625 10.5859375 C49.12523739 17.73381546 49.04241836 26.729868 48 35 C45.60289781 43.13780185 41.1776822 47.61275303 33.9375 51.75 C23.14052868 56.34445588 11.83539759 54 0 54 C0 36.18 0 18.36 0 0 Z M13 12 C13 21.57 13 31.14 13 41 C23.71594938 41.81476605 23.71594938 41.81476605 31 37 C34.59964232 33.04039344 34.50927414 28.78450774 34.34375 23.66015625 C33.84543364 19.80386715 32.70670583 17.77610854 30 15 C23.85472952 11.31283771 20.83235843 12 13 12 Z " fill="#000000" transform="translate(610,726)"/>
<path d="M0 0 C4.62 0 9.24 0 14 0 C14.33 5.61 14.66 11.22 15 17 C16.65 16.01 18.3 15.02 20 14 C26.27598688 12.53560306 31.26146059 12.89206646 37 16 C41.18981584 19.54660318 43.97498455 23.5674181 45 29 C45.69186836 37.89365322 45.14702677 45.2047434 39.5625 52.375 C36.35651874 55.65917593 34.52929023 56.84961003 29.94140625 57.30078125 C28.82636719 57.30464844 27.71132813 57.30851563 26.5625 57.3125 C25.45003906 57.32925781 24.33757813 57.34601562 23.19140625 57.36328125 C19.71507852 56.96756708 17.82840365 56.00367286 15 54 C14.67 54.99 14.34 55.98 14 57 C9.38 57 4.76 57 0 57 C0 38.19 0 19.38 0 0 Z M14 31 C13.29818989 34.1552926 13.29263503 36.84538043 14 40 C16.43420418 43.50811779 17.79342584 44.77376734 22 45.5625 C25.88197317 44.83463003 27.42158536 44.02042858 30 41 C31.28771446 37.25068772 31.76764207 33.79482027 30.1796875 30.08203125 C27.95558965 26.98155047 26.20598713 26.04046176 22.5 25.3125 C18.00475167 26.19549521 16.56047603 27.19808105 14 31 Z " fill="#000000" transform="translate(808,723)"/>
<path d="M0 0 C4.62 0 9.24 0 14 0 C14 18.81 14 37.62 14 57 C9.38 57 4.76 57 0 57 C-0.33 55.68 -0.66 54.36 -1 53 C-1.433125 53.474375 -1.86625 53.94875 -2.3125 54.4375 C-6.11603391 57.95929065 -11.16955688 57.3283547 -16.05078125 57.28125 C-21.25289394 56.78515448 -23.78878261 54.27850724 -27.25 50.625 C-32.02452453 43.46321321 -32.04474601 34.86007535 -30.5703125 26.58984375 C-28.92337374 21.31353994 -25.78419452 17.73638042 -21 15 C-14.87759521 12.77903133 -10.01511739 12.54485005 -4 15 C-3.01 15.66 -2.02 16.32 -1 17 C-0.67 11.39 -0.34 5.78 0 0 Z M-16 30 C-17.5121867 33.02437339 -17.17263369 35.66241534 -17 39 C-15.81232145 42.38031589 -15.10174775 42.93216817 -12 45 C-6.9169001 45.56526648 -6.9169001 45.56526648 -2.625 43.125 C-0.05961798 39.77026967 0.4098409 37.31279495 0.33984375 33.04296875 C0.09598483 30.68589712 0.09598483 30.68589712 -2.0625 28 C-7.4888317 24.30547629 -12.00292731 24.77305879 -16 30 Z " fill="#000000" transform="translate(1019,723)"/>
<path d="M0 0 C0.19335938 0.74765625 0.38671875 1.4953125 0.5859375 2.265625 C0.97652344 3.74289062 0.97652344 3.74289062 1.375 5.25 C1.63023437 6.22453125 1.88546875 7.1990625 2.1484375 8.203125 C2.8734252 10.95187004 2.8734252 10.95187004 4.1640625 13.046875 C5.28385852 15.66322085 4.74630605 17.31329821 4 20 C3.47269287 20.15557373 2.94538574 20.31114746 2.40209961 20.47143555 C-6.48698033 23.10005658 -15.35819675 25.73533307 -24.125 28.75 C-36.25860053 32.80762261 -47.44809114 34.63565562 -59.8359375 30.0859375 C-64.00625513 27.99325104 -67.44830323 24.98804317 -71 22 C-72.11955078 21.30390625 -72.11955078 21.30390625 -73.26171875 20.59375 C-75 19 -75 19 -75.25 16.3125 C-75.12625 15.1678125 -75.12625 15.1678125 -75 14 C-73.36804688 13.72736328 -73.36804688 13.72736328 -71.703125 13.44921875 C-70.21870893 13.19555271 -68.73433628 12.94163253 -67.25 12.6875 C-66.53972656 12.56955078 -65.82945312 12.45160156 -65.09765625 12.33007812 C-60.79701197 11.58793155 -56.58669293 10.66863058 -52.359375 9.58203125 C-44.02246545 7.45147299 -35.57739405 5.88773703 -27.1328125 4.25 C-20.1709435 2.88325271 -13.31849285 1.38032163 -6.48828125 -0.546875 C-3.92062872 -1.0144538 -2.44078513 -0.84598642 0 0 Z " fill="#00A2DF" transform="translate(233,353)"/>
<path d="M0 0 C11.16955144 1.83303988 22.23620656 4.00621579 33.27075195 6.51660156 C38.3079312 7.65275024 43.35548992 8.64944029 48.4375 9.5625 C53.92605504 10.55992361 59.22641509 11.82355565 64.58203125 13.37109375 C68.04217922 14.27106762 71.44407898 14.66453575 75 15 C74.77319002 18.92948286 74.39659241 20.59632559 71.59375 23.44921875 C60.72533691 31.31235095 50.43208088 35.50648144 36.75 33.375 C31.1285319 32.1873659 25.77018166 30.31994401 20.34765625 28.44140625 C12.01134953 25.61121528 3.47726245 23.36520644 -5 21 C-4.3900874 16.01155691 -3.36525565 11.39844654 -1.9375 6.5625 C-1.57527344 5.32628906 -1.21304688 4.09007812 -0.83984375 2.81640625 C-0.56269531 1.88699219 -0.28554688 0.95757812 0 0 Z " fill="#00A2DF" transform="translate(515,352)"/>
<path d="M0 0 C4.62 0 9.24 0 14 0 C14.33 5.94 14.66 11.88 15 18 C16.98 16.68 18.96 15.36 21 14 C24.03515625 13.50390625 24.03515625 13.50390625 27.0625 13.5625 C28.56490234 13.56443359 28.56490234 13.56443359 30.09765625 13.56640625 C34.63907645 14.24486876 37.21727429 16.13030476 40.25 19.5 C43.19164413 23.70234876 43.13486746 27.35810848 43.09765625 32.29296875 C43.0962413 32.99899734 43.09482635 33.70502594 43.09336853 34.43244934 C43.08777764 36.68417626 43.07522688 38.93580321 43.0625 41.1875 C43.05748382 42.71549335 43.05292112 44.24348827 43.04882812 45.77148438 C43.0386627 49.51439228 43.01908569 53.25708443 43 57 C38.38 57 33.76 57 29 57 C28.97421875 55.01355469 28.9484375 53.02710938 28.921875 50.98046875 C28.88015184 49.05424958 28.83829002 47.12803062 28.79248047 45.2019043 C28.75041351 43.20710869 28.72862136 41.21191918 28.70703125 39.21679688 C28.67480469 37.96318359 28.64257812 36.70957031 28.609375 35.41796875 C28.58842773 34.26063232 28.56748047 33.1032959 28.54589844 31.91088867 C28.25938374 28.92706884 28.25938374 28.92706884 26.18847656 27.0949707 C22.83206712 25.41564269 20.53703891 26.01748919 17 27 C14.74142341 30.19941752 14.69875981 33.24216659 14.5859375 37.078125 C14.52792969 38.81835938 14.52792969 38.81835938 14.46875 40.59375 C14.42234375 42.40359375 14.42234375 42.40359375 14.375 44.25 C14.31699219 46.08304688 14.31699219 46.08304688 14.2578125 47.953125 C14.16358196 50.96850226 14.08070369 53.9842304 14 57 C9.38 57 4.76 57 0 57 C0 38.19 0 19.38 0 0 Z " fill="#000000" transform="translate(757,723)"/>
<path d="M0 0 C0.83660156 0.15984375 1.67320312 0.3196875 2.53515625 0.484375 C5.16174737 1.32146745 6.83942568 2.48626084 8.9375 4.25 C9.2675 2.93 9.5975 1.61 9.9375 0.25 C14.5575 0.25 19.1775 0.25 23.9375 0.25 C23.9375 14.44 23.9375 28.63 23.9375 43.25 C19.3175 43.25 14.6975 43.25 9.9375 43.25 C9.6075 41.93 9.2775 40.61 8.9375 39.25 C8.195 39.91 7.4525 40.57 6.6875 41.25 C1.90735954 44.42919081 -3.56535257 43.9731147 -9.0625 43.25 C-14.42007169 41.55009312 -17.50315624 38.1791065 -20.0625 33.25 C-23.14904445 24.59003814 -22.42978143 16.72576393 -19.0625 8.25 C-16.19456558 3.75690273 -12.91836099 1.01156293 -7.71875 -0.375 C-4.87796084 -0.77605259 -2.80216758 -0.57169416 0 0 Z M-7.0625 17.25 C-8.57048772 20.83147084 -8.08105652 22.19525826 -6.8125 25.9375 C-5.3013208 29.4349837 -5.3013208 29.4349837 -2.0625 31.25 C1.60481219 31.72834507 3.46915147 31.49978588 6.75 29.75 C9.31357097 26.82020461 9.82267782 25.0252642 10.078125 21.21484375 C9.86575438 18.2475542 8.80558943 16.5183943 6.9375 14.25 C0.98220588 10.27980392 -2.82894251 11.80685466 -7.0625 17.25 Z " fill="#000000" transform="translate(926.0625,736.75)"/>
<path d="M0 0 C0.39574219 0.46921875 0.79148437 0.9384375 1.19921875 1.421875 C1.52921875 0.101875 1.85921875 -1.218125 2.19921875 -2.578125 C6.81921875 -2.578125 11.43921875 -2.578125 16.19921875 -2.578125 C16.19921875 11.611875 16.19921875 25.801875 16.19921875 40.421875 C11.57921875 40.421875 6.95921875 40.421875 2.19921875 40.421875 C1.86921875 39.101875 1.53921875 37.781875 1.19921875 36.421875 C0.45671875 37.081875 -0.28578125 37.741875 -1.05078125 38.421875 C-5.83092171 41.60106581 -11.30363382 41.1449897 -16.80078125 40.421875 C-20.85038741 39.13697322 -23.33626458 36.9617187 -26.11328125 33.734375 C-30.28468705 25.54605991 -30.83360106 16.92910798 -28.08203125 8.12109375 C-25.8624674 3.04097131 -22.72904043 -0.06525439 -17.80078125 -2.578125 C-12.41929458 -4.37195389 -4.41587434 -3.86987686 0 0 Z M-12.67578125 11.609375 C-14.88680448 14.53572927 -15.80078125 15.7849513 -15.80078125 19.421875 C-13.98581212 24.80192113 -13.98581212 24.80192113 -9.80078125 28.421875 C-6.13346906 28.90022007 -4.26912978 28.67166088 -0.98828125 26.921875 C1.57573072 23.99157561 2.08125385 22.1964601 2.34375 18.38671875 C2.05291989 14.43300134 -0.10747039 12.11518586 -2.80078125 9.421875 C-7.19951897 8.84090964 -9.09706416 8.88643809 -12.67578125 11.609375 Z " fill="#000000" transform="translate(691.80078125,739.578125)"/>
<path d="M0 0 C0.56332031 0.46664062 1.12664062 0.93328125 1.70703125 1.4140625 C2.03703125 0.0940625 2.36703125 -1.2259375 2.70703125 -2.5859375 C6.99703125 -2.5859375 11.28703125 -2.5859375 15.70703125 -2.5859375 C15.70703125 11.6040625 15.70703125 25.7940625 15.70703125 40.4140625 C11.41703125 40.4140625 7.12703125 40.4140625 2.70703125 40.4140625 C2.37703125 39.0940625 2.04703125 37.7740625 1.70703125 36.4140625 C0.96453125 37.0740625 0.22203125 37.7340625 -0.54296875 38.4140625 C-5.32921093 41.59731146 -10.78942278 41.12419746 -16.29296875 40.4140625 C-21.75713644 38.83024578 -24.56369244 35.13389519 -27.34765625 30.4140625 C-30.38991602 23.97754597 -30.38527587 15.78642067 -28.10546875 9.1015625 C-25.68438894 3.65692218 -22.73252584 -0.31328128 -17.10546875 -2.5859375 C-11.20064493 -4.26456635 -5.08233135 -3.51520704 0 0 Z M-12.66796875 10.9140625 C-14.88928772 14.3314763 -15.5110606 17.35109207 -15.29296875 21.4140625 C-13.71866111 25.03497006 -12.60413949 26.20661534 -9.29296875 28.4140625 C-6.37804325 28.9978821 -6.37804325 28.9978821 -3.29296875 28.4140625 C-0.41610307 26.17650031 1.28960839 24.4054418 2.70703125 21.0390625 C2.70703125 17.27518944 1.44973694 14.71275542 -0.29296875 11.4140625 C-4.49299328 8.61404615 -8.28150152 8.14366214 -12.66796875 10.9140625 Z " fill="#000000" transform="translate(1129.29296875,739.5859375)"/>
<path d="M0 0 C6.6825 -0.12375 6.6825 -0.12375 13.5 -0.25 C15.58344727 -0.30462402 15.58344727 -0.30462402 17.70898438 -0.36035156 C24.97294187 -0.4253206 29.88496282 -0.03989821 36 4 C40.84714625 9.09571786 41.35822448 13.40406309 41.27734375 20.20703125 C40.84909172 24.51971013 39.66489226 26.56369156 37 30 C29.44853586 35.8562375 23.30015105 35.08532249 14 35 C14 41.27 14 47.54 14 54 C9.38 54 4.76 54 0 54 C0 36.18 0 18.36 0 0 Z M14 11 C14 15.29 14 19.58 14 24 C20.11324147 24.52663716 20.11324147 24.52663716 25.625 22.4375 C27.29683988 19.94021328 27.29683988 19.94021328 27 16.375 C26.33122257 13.05792965 26.33122257 13.05792965 24.4375 11.5625 C20.90004954 10.74616528 17.62833901 10.87905537 14 11 Z " fill="#000000" transform="translate(1056,726)"/>
<path d="M0 0 C4.74121412 4.86598292 6.09587523 9.64141797 6.375 16.3125 C6.21569043 22.82649128 4.87778516 28.24960171 0.05859375 32.85546875 C-7.42952209 38.66117182 -14.80527996 38.82818359 -24 38 C-28.92020261 36.4341742 -32.03574012 34.08788294 -35.4375 30.25 C-39.14640318 22.53548139 -39.99610894 15.02087208 -37.28125 6.83203125 C-35.03760031 1.67743952 -32.05557589 -1.52216834 -27 -4 C-17.39379337 -7.57108053 -7.95463825 -6.53679763 0 0 Z M-22.4375 8.9375 C-24.54359358 13.06544341 -24.94509348 16.45533309 -24 21 C-21.5422681 24.54202539 -20.18675879 25.7820239 -15.9375 26.5625 C-12.96700466 26.18486769 -12.96700466 26.18486769 -10.6875 24.5 C-8.42156336 21.14305683 -7.78585571 17.98461346 -8 14 C-9.5319364 9.66186064 -9.5319364 9.66186064 -13 7 C-17.08643837 6.54595129 -19.15809721 6.33079522 -22.4375 8.9375 Z " fill="#000000" transform="translate(895,742)"/>
<path d="M0 0 C4.73448975 4.72464674 6.22004784 9.8931698 6.6875 16.4375 C6.4375 18.9375 6.4375 18.9375 5.4375 19.9375 C3.29191173 20.02525605 1.14345579 20.04445219 -1.00390625 20.03515625 C-2.30908203 20.03193359 -3.61425781 20.02871094 -4.95898438 20.02539062 C-6.3476569 20.01703401 -7.73632877 20.00856905 -9.125 20 C-10.51757656 19.99498666 -11.91015481 19.99042347 -13.30273438 19.98632812 C-16.7226987 19.97449434 -20.14257844 19.9580088 -23.5625 19.9375 C-22.30188633 22.93843093 -22.30188633 22.93843093 -20.5625 25.9375 C-17.16280189 27.2684316 -17.16280189 27.2684316 -13.5625 26.9375 C-12.98886719 26.28007813 -12.41523437 25.62265625 -11.82421875 24.9453125 C-8.66670778 22.14227168 -5.81112886 22.49097004 -1.8125 22.6875 C-1.11511719 22.70554687 -0.41773438 22.72359375 0.30078125 22.7421875 C2.01361539 22.78911446 3.72573824 22.86085395 5.4375 22.9375 C4.41921452 28.89598234 2.26314379 32.55895265 -2.625 36.25 C-7.05542327 38.79513677 -10.32124568 39.12291528 -15.375 39.1875 C-17.17904297 39.22617187 -17.17904297 39.22617187 -19.01953125 39.265625 C-25.42295247 38.67258489 -29.44042444 35.72802024 -33.5625 30.9375 C-37.61248228 24.15818184 -37.28849617 17.6264594 -36.5625 9.9375 C-35.17629465 4.49169327 -32.27843881 0.87714925 -27.53125 -2.08984375 C-18.712521 -6.44671582 -7.88903483 -6.23581797 0 0 Z M-22.5625 9.9375 C-22.8925 11.2575 -23.2225 12.5775 -23.5625 13.9375 C-18.2825 13.9375 -13.0025 13.9375 -7.5625 13.9375 C-9.10292748 9.13445965 -9.10292748 9.13445965 -11.5625 6.9375 C-16.20406529 6.50772544 -19.28163668 6.40426258 -22.5625 9.9375 Z " fill="#000000" transform="translate(1238.5625,741.0625)"/>
<path d="M0 0 C4.62 0 9.24 0 14 0 C14.33 1.32 14.66 2.64 15 4 C16.0828125 3.01 16.0828125 3.01 17.1875 2 C22.20811409 -1.32316838 28.26222743 -0.94915889 34 0 C37.83617019 1.93739468 40.15919083 4.31030251 42.06713867 8.14453125 C43.23304412 11.71334311 43.22521978 14.73491766 43.1953125 18.48828125 C43.1924826 19.19147995 43.18965271 19.89467865 43.18673706 20.6191864 C43.17560151 22.85046892 43.15050997 25.08134017 43.125 27.3125 C43.1149616 28.83137438 43.10583726 30.3502551 43.09765625 31.86914062 C43.07568413 35.57955921 43.04120047 39.28973942 43 43 C38.71 43 34.42 43 30 43 C29.95101563 41.32550781 29.90203125 39.65101563 29.8515625 37.92578125 C29.77651762 35.72133791 29.70097053 33.51691163 29.625 31.3125 C29.5940625 30.20970703 29.563125 29.10691406 29.53125 27.97070312 C29.49257812 26.90400391 29.45390625 25.83730469 29.4140625 24.73828125 C29.3826416 23.75899658 29.3512207 22.77971191 29.31884766 21.77075195 C28.97885253 18.81623079 28.3555075 16.64463558 27 14 C23.75073878 11.83382585 23.4014758 11.78664331 19.8125 12.375 C18.554375 12.58125 17.29625 12.7875 16 13 C14.99841931 16.3789982 14.80421884 19.56276528 14.68359375 23.078125 C14.64169922 24.23828125 14.59980469 25.3984375 14.55664062 26.59375 C14.49766602 28.40359375 14.49766602 28.40359375 14.4375 30.25 C14.39431641 31.47203125 14.35113281 32.6940625 14.30664062 33.953125 C14.20062717 36.96861881 14.0998156 39.98429468 14 43 C9.38 43 4.76 43 0 43 C0 28.81 0 14.62 0 0 Z " fill="#000000" transform="translate(1153,737)"/>
<path d="M0 0 C1.10794922 -0.00630432 2.21589844 -0.01260864 3.35742188 -0.019104 C5.1450293 -0.01303131 5.1450293 -0.01303131 6.96875 -0.00683594 C8.19658203 -0.00874939 9.42441406 -0.01066284 10.68945312 -0.01263428 C13.28515834 -0.01399514 15.88087037 -0.0103056 18.4765625 -0.00195312 C22.45328028 0.00874744 26.42954629 -0.00185211 30.40625 -0.01464844 C32.92708433 -0.01332683 35.44791838 -0.0107644 37.96875 -0.00683594 C39.16048828 -0.0108844 40.35222656 -0.01493286 41.58007812 -0.019104 C42.68802734 -0.01279968 43.79597656 -0.00649536 44.9375 0 C46.39833008 0.00238678 46.39833008 0.00238678 47.88867188 0.00482178 C51.49955862 0.36025563 53.62643391 1.44655569 56.21875 3.94628906 C58.02880113 7.29488366 57.99500307 9.50923595 57.46875 13.25878906 C55.03125 16.13378906 55.03125 16.13378906 52.46875 18.25878906 C51.97375 18.75378906 51.97375 18.75378906 51.46875 19.25878906 C49.68532693 19.37347846 47.89737421 19.41842602 46.11035156 19.43579102 C44.96536194 19.44862625 43.82037231 19.46146149 42.64068604 19.47468567 C40.76893707 19.48576607 40.76893707 19.48576607 38.859375 19.49707031 C37.58527771 19.50514206 36.31118042 19.51321381 34.99847412 19.52153015 C32.29484399 19.53539296 29.59133673 19.5464024 26.88769531 19.55395508 C23.42963107 19.56500094 19.97221366 19.59937212 16.51437759 19.63912678 C13.21277415 19.67161587 9.91111394 19.67607489 6.609375 19.68457031 C5.36963928 19.7020784 4.12990356 19.71958649 2.8526001 19.73762512 C1.1162027 19.73323677 1.1162027 19.73323677 -0.65527344 19.72875977 C-1.67151794 19.73462601 -2.68776245 19.74049225 -3.73480225 19.74653625 C-7.28179467 19.12788154 -8.96343559 17.73078602 -11.53125 15.25878906 C-12.88459402 11.54777731 -12.78009002 8.00530912 -11.53125 4.25878906 C-10.87125 4.25878906 -10.21125 4.25878906 -9.53125 4.25878906 C-9.53125 3.59878906 -9.53125 2.93878906 -9.53125 2.25878906 C-6.25108539 0.30804477 -3.79239952 0.00619622 0 0 Z " fill="#00A9E5" transform="translate(351.53125,311.7412109375)"/>
<path d="M0 0 C2.80054123 3.57339089 4 6.36758576 4 11 C-0.29 11 -4.58 11 -9 11 C-9.33 9.68 -9.66 8.36 -10 7 C-12.64 7 -15.28 7 -18 7 C-18 7.99 -18 8.98 -18 10 C-16.75863281 10.36351562 -15.51726563 10.72703125 -14.23828125 11.1015625 C-12.5960268 11.6083153 -10.95411738 12.11618721 -9.3125 12.625 C-8.49587891 12.86089844 -7.67925781 13.09679687 -6.83789062 13.33984375 C-1.15179451 15.13545305 1.75534582 16.93469818 5 22 C6.04704599 25.80931862 5.35022531 29.21199305 3.75 32.8125 C1.14920432 36.0634946 -1.05071845 37.68357282 -5 39 C-7.43448818 39.14703064 -9.8737477 39.22105339 -12.3125 39.25 C-13.60800781 39.27578125 -14.90351562 39.3015625 -16.23828125 39.328125 C-21.79087177 38.84378689 -24.90532501 37.09467499 -28.8125 33.1875 C-31.08877439 29.87064303 -31.49340459 27.90568719 -32 24 C-29.89695523 23.8919977 -27.79233091 23.81441013 -25.6875 23.75 C-23.92986328 23.68039062 -23.92986328 23.68039062 -22.13671875 23.609375 C-19 24 -19 24 -17.3125 26 C-16.879375 26.66 -16.44625 27.32 -16 28 C-12.37436186 28.33380814 -12.37436186 28.33380814 -9 28 C-9.21475676 26.02240253 -9.21475676 26.02240253 -10 24 C-13.53612053 22.74112606 -17.00544317 21.86446392 -20.65429688 21.02148438 C-24.49058383 20.0417963 -26.58460356 19.40363994 -29.484375 16.5859375 C-31.58941221 12.9943534 -32.19521408 10.14016536 -32 6 C-30.30074066 0.80226553 -27.78971524 -1.4642684 -23 -4 C-15.03334062 -6.35378573 -6.55570688 -4.98233723 0 0 Z " fill="#000000" transform="translate(746,741)"/>
<path d="M0 0 C0.90959449 1.34754739 1.80677446 2.70611025 2.62109375 4.11328125 C5.16934986 7.59998862 8.65679476 10.19116209 11.953125 12.94921875 C14 15 14 15 14 18 C11.33399497 19.10578618 8.66722466 20.20966252 6 21.3125 C4.88431641 21.7755957 4.88431641 21.7755957 3.74609375 22.24804688 C1.50129315 23.17524712 -0.74845823 24.08930543 -3 25 C-3.72251953 25.29914307 -4.44503906 25.59828613 -5.18945312 25.90649414 C-10.78386456 28.14151636 -14.25083773 28.13965695 -20 27 C-21.258125 26.773125 -22.51625 26.54625 -23.8125 26.3125 C-30.62406099 24.51347885 -37.1679803 20.88801313 -43 17 C-43 16.34 -43 15.68 -43 15 C-43.66 15 -44.32 15 -45 15 C-45 13.68 -45 12.36 -45 11 C-34.79071936 7.70313865 -24.59601616 4.51387647 -14.19921875 1.859375 C-12.02729297 1.27595171 -9.87470237 0.6163451 -7.74609375 -0.109375 C-4.53881918 -1.14957216 -3.11218753 -1.31039475 0 0 Z " fill="#00A0DD" transform="translate(242,376)"/>
<path d="M0 0 C1.50096457 0.08919667 3.00080309 0.19735084 4.5 0.3125 C5.75296875 0.39951172 5.75296875 0.39951172 7.03125 0.48828125 C10.1121496 1.01933105 12.80565548 2.02315826 15.70703125 3.16430664 C21.07980897 5.12246445 26.69064097 6.39403583 32.21875 7.83789062 C33.16234375 8.08861328 34.1059375 8.33933594 35.078125 8.59765625 C35.92793945 8.81945557 36.77775391 9.04125488 37.65332031 9.26977539 C39.92595781 9.97696003 41.90852132 10.87249628 44 12 C44 14.125 44 14.125 43 17 C35.8027269 24.17891271 25.03096519 28.73230116 14.890625 29.0703125 C4.78358306 28.44323326 -4.93600068 23.19239245 -14 19 C-13.8125 16.6875 -13.8125 16.6875 -13 14 C-11.34634594 12.97862543 -9.67623498 11.98387706 -8 11 C-3.08154578 6.09134371 -3.08154578 6.09134371 0 0 Z " fill="#01A0DD" transform="translate(506,375)"/>
<path d="M0 0 C77.88 0 155.76 0 236 0 C236.33 0.99 236.66 1.98 237 3 C234.23000599 3.78204147 231.77518724 4.12460693 228.90019608 4.12304783 C228.0875675 4.12503888 227.27493893 4.12702993 226.43768525 4.12908131 C225.55052756 4.12616847 224.66336987 4.12325563 223.74932861 4.12025452 C222.32925117 4.12153615 222.32925117 4.12153615 220.8804853 4.12284368 C217.70057787 4.12449395 214.5207229 4.11898447 211.34082031 4.11352539 C209.06439719 4.1132434 206.78797397 4.11340149 204.5115509 4.1139679 C198.32396064 4.11425539 192.13638967 4.10836639 185.9488039 4.10139394 C179.4852184 4.09515243 173.02163248 4.09455597 166.55804443 4.09336853 C155.70682399 4.09061126 144.85561147 4.0843605 134.00439453 4.07543945 C122.82763708 4.06626032 111.65088155 4.05918194 100.47412109 4.05493164 C99.44070347 4.05453756 99.44070347 4.05453756 98.38640872 4.05413551 C94.93017081 4.05283047 91.47393288 4.05156676 88.01769495 4.05032361 C59.34512517 4.03995704 30.67256286 4.02226964 2 4 C2 4.66 2 5.32 2 6 C1.34 6 0.68 6 0 6 C0 4.02 0 2.04 0 0 Z " fill="#57C8F1" transform="translate(24,276)"/>
<path d="M0 0 C4.62 0 9.24 0 14 0 C14.33 1.65 14.66 3.3 15 5 C15.78375 4.360625 16.5675 3.72125 17.375 3.0625 C22.03715492 -0.60062172 22.05985579 0 29 0 C29 4.62 29 9.24 29 14 C26.49348958 14.45572917 23.98697917 14.91145833 21.48046875 15.3671875 C18.77272154 15.91188449 18.77272154 15.91188449 16 18 C15.0268319 20.9195043 14.8070454 23.05444951 14.68359375 26.10546875 C14.64169922 27.08837891 14.59980469 28.07128906 14.55664062 29.08398438 C14.51732422 30.10814453 14.47800781 31.13230469 14.4375 32.1875 C14.39431641 33.22326172 14.35113281 34.25902344 14.30664062 35.32617188 C14.20055737 37.88395702 14.09977414 40.44196098 14 43 C9.38 43 4.76 43 0 43 C0 28.81 0 14.62 0 0 Z " fill="#000000" transform="translate(957,737)"/>
<path d="M0 0 C4.62 0 9.24 0 14 0 C14 18.81 14 37.62 14 57 C9.38 57 4.76 57 0 57 C0 38.19 0 19.38 0 0 Z " fill="#000000" transform="translate(1250,723)"/>
<path d="M0 0 C14.37107285 -0.10772918 28.66606646 -0.11796696 43 1 C43 1.66 43 2.32 43 3 C28.81 3 14.62 3 0 3 C0 2.01 0 1.02 0 0 Z " fill="#3EC0ED" transform="translate(635,279)"/>
<path d="M0 0 C0.99 0 1.98 0 3 0 C3.23105878 12.8539779 3.03996736 25.28663202 1 38 C0.67 38 0.34 38 0 38 C0 25.46 0 12.92 0 0 Z " fill="#0393D2" transform="translate(379,828)"/>
<path d="M0 0 C1.32 0.33 2.64 0.66 4 1 C4 8.59 4 16.18 4 24 C3.34 24.33 2.68 24.66 2 25 C1.34 16.75 0.68 8.5 0 0 Z " fill="#399BD0" transform="translate(365,828)"/>
<path d="M0 0 C4.62 0 9.24 0 14 0 C13.67 0.66 13.34 1.32 13 2 C11.07421875 2.484375 11.07421875 2.484375 8.6875 2.75 C7.51767578 2.89695312 7.51767578 2.89695312 6.32421875 3.046875 C3.69866432 2.99392264 2.23526243 2.32990442 0 1 C0 0.67 0 0.34 0 0 Z " fill="#7FCDED" transform="translate(513,401)"/>
<path d="M0 0 C0.66 0 1.32 0 2 0 C1.67 2.97 1.34 5.94 1 9 C0.01 9 -0.98 9 -2 9 C-1.41196203 5.97580475 -0.77321882 2.98241547 0 0 Z " fill="#2AA3D9" transform="translate(448,580)"/>
<path d="M0 0 C0.66 0 1.32 0 2 0 C2.26218749 3.14624993 2.24754367 4.61837017 0.5 7.3125 C-0.2425 8.1478125 -0.2425 8.1478125 -1 9 C-1.66 8.67 -2.32 8.34 -3 8 C-2.01 5.36 -1.02 2.72 0 0 Z " fill="#0893D1" transform="translate(420,582)"/>
<path d="M0 0 C0.99 0.33 1.98 0.66 3 1 C1.02 3.97 -0.96 6.94 -3 10 C-3.33 9.34 -3.66 8.68 -4 8 C-3.22265625 6.0546875 -3.22265625 6.0546875 -2.0625 3.875 C-1.49208984 2.78832031 -1.49208984 2.78832031 -0.91015625 1.6796875 C-0.60980469 1.12539063 -0.30945313 0.57109375 0 0 Z " fill="#06A1DE" transform="translate(404,288)"/>
<path d="M0 0 C2 1 2 1 2 1 Z M0 1 C-1.1875 2.5 -1.1875 2.5 -3 4 C-5.6875 4.1875 -5.6875 4.1875 -8 4 C-8 3.34 -8 2.68 -8 2 C-5.07175348 1.02391783 -3.04386724 0.91773332 0 1 Z " fill="#0595D3" transform="translate(417,525)"/>
<path d="M0 0 C0.99 0 1.98 0 3 0 C2.67 2.64 2.34 5.28 2 8 C1.34 8 0.68 8 0 8 C0 5.36 0 2.72 0 0 Z " fill="#58B7E1" transform="translate(501,464)"/>
<path d="M0 0 C1.2077558 3.62326739 0.54311128 4.64146369 -1 8 C-1.99 7.67 -2.98 7.34 -4 7 C-1.125 1.125 -1.125 1.125 0 0 Z " fill="#0080C2" transform="translate(303,549)"/>
</svg>
